<?xml version="1.0" encoding="UTF-8" standalone="no"?>
<!DOCTYPE svg PUBLIC "-//W3C//DTD SVG 1.1//EN"
 "http://www.w3.org/Graphics/SVG/1.1/DTD/svg11.dtd">
<!-- Generated by graphviz version 2.40.1 (20161225.0304)
 -->
<!-- Title: G Pages: 1 -->
<svg width="1409pt" height="955pt"
 viewBox="0.00 0.00 1408.71 954.96" xmlns="http://www.w3.org/2000/svg" xmlns:xlink="http://www.w3.org/1999/xlink">
<g id="graph0" class="graph" transform="scale(1 1) rotate(0) translate(4 950.9603)">
<title>G</title>
<polygon fill="#ffffff" stroke="transparent" points="-4,4 -4,-950.9603 1404.706,-950.9603 1404.706,4 -4,4"/>
<g id="clust1" class="cluster">
<title>cluster_0</title>
<polygon fill="none" stroke="#0000ff" points="294.706,-92.4156 294.706,-455.5958 674.706,-455.5958 674.706,-92.4156 294.706,-92.4156"/>
<text text-anchor="middle" x="484.706" y="-438.9958" font-family="Times,serif" font-size="14.00" fill="#000000">移动至适当位置坐底</text>
</g>
<g id="clust2" class="cluster">
<title>cluster_1</title>
<polygon fill="none" stroke="#0000ff" points="682.706,-8 682.706,-621.7446 1048.706,-621.7446 1048.706,-8 682.706,-8"/>
<text text-anchor="middle" x="865.706" y="-605.1446" font-family="Times,serif" font-size="14.00" fill="#000000">定深巡航</text>
</g>
<g id="clust3" class="cluster">
<title>cluster_2</title>
<polygon fill="none" stroke="#0000ff" points="1056.706,-81 1056.706,-744.7603 1392.706,-744.7603 1392.706,-81 1056.706,-81"/>
<text text-anchor="middle" x="1224.706" y="-728.1603" font-family="Times,serif" font-size="14.00" fill="#000000">抓取</text>
</g>
<!-- a -->
<g id="node1" class="node">
<title>a</title>
<ellipse fill="#d3d3d3" stroke="#000000" cx="509.706" cy="-118.4156" rx="55.0439" ry="18"/>
<text text-anchor="middle" x="509.706" y="-114.2156" font-family="Times,serif" font-size="14.00" fill="#000000">全速下潜</text>
</g>
<!-- f -->
<g id="node6" class="node">
<title>f</title>
<ellipse fill="#d3d3d3" stroke="#000000" cx="1200.706" cy="-693.9603" rx="136.0991" ry="18"/>
<text text-anchor="middle" x="1200.706" y="-689.7603" font-family="Times,serif" font-size="14.00" fill="#000000">识别抓取范围内是否有可抓目标</text>
</g>
<!-- a&#45;&gt;f -->
<g id="edge7" class="edge">
<title>a&#45;&gt;f</title>
<path fill="none" stroke="#000000" d="M461.78,-127.2709C368.7403,-145.8344 172.706,-192.2512 172.706,-253.8057 172.706,-535.7702 172.706,-535.7702 172.706,-535.7702 172.706,-624.8431 783.3929,-670.5837 1063.3945,-686.8746"/>
<polygon fill="#000000" stroke="#000000" points="1063.4368,-690.3828 1073.622,-687.4651 1063.8404,-683.3944 1063.4368,-690.3828"/>
<text text-anchor="middle" x="228.5702" y="-414.3801" font-family="Times,serif" font-size="14.00" fill="#000000">当深度一定</text>
<text text-anchor="middle" x="228.5702" y="-397.5801" font-family="Times,serif" font-size="14.00" fill="#000000">时间内波动</text>
<text text-anchor="middle" x="228.5702" y="-380.7801" font-family="Times,serif" font-size="14.00" fill="#000000">稳定在5cm以内时</text>
<text text-anchor="middle" x="228.5702" y="-363.9801" font-family="Times,serif" font-size="14.00" fill="#000000">判断为坐底</text>
</g>
<!-- b -->
<g id="node2" class="node">
<title>b</title>
<ellipse fill="#d3d3d3" stroke="#000000" cx="484.706" cy="-393.3801" rx="182.4414" ry="29.3315"/>
<text text-anchor="middle" x="484.706" y="-397.5801" font-family="Times,serif" font-size="14.00" fill="#000000">以视野内置信度最高的为目标,</text>
<text text-anchor="middle" x="484.706" y="-380.7801" font-family="Times,serif" font-size="14.00" fill="#000000">前后或左右移动使目标中心在阈值框内</text>
</g>
<!-- b&#45;&gt;a -->
<g id="edge1" class="edge">
<title>b&#45;&gt;a</title>
<path fill="none" stroke="#000000" d="M488.6696,-363.7788C493.9542,-323.0587 503.1676,-247.4344 507.706,-182.6313 508.5327,-170.8265 509.0177,-157.7771 509.3022,-146.5422"/>
<polygon fill="#000000" stroke="#000000" points="512.8038,-146.4988 509.5182,-136.4264 505.8054,-146.3494 512.8038,-146.4988"/>
<text text-anchor="middle" x="568.4988" y="-249.6057" font-family="Times,serif" font-size="14.00" fill="#000000">目标中心在阈值框内</text>
</g>
<!-- c -->
<g id="node3" class="node">
<title>c</title>
<ellipse fill="#d3d3d3" stroke="#000000" cx="812.706" cy="-253.8057" rx="122.2416" ry="53.3494"/>
<text text-anchor="middle" x="812.706" y="-274.8057" font-family="Times,serif" font-size="14.00" fill="#000000">路径规划</text>
<text text-anchor="middle" x="812.706" y="-258.0057" font-family="Times,serif" font-size="14.00" fill="#000000">因为摄像头向前的视野不够多,</text>
<text text-anchor="middle" x="812.706" y="-241.2057" font-family="Times,serif" font-size="14.00" fill="#000000">路径规划无法依靠视觉,</text>
<text text-anchor="middle" x="812.706" y="-224.4057" font-family="Times,serif" font-size="14.00" fill="#000000">只能像扫地机一样遍历</text>
</g>
<!-- b&#45;&gt;c -->
<g id="edge6" class="edge">
<title>b&#45;&gt;c</title>
<path fill="none" stroke="#000000" d="M549.5082,-365.8047C596.8853,-345.6443 661.9541,-317.9555 715.5391,-295.1533"/>
<polygon fill="#000000" stroke="#000000" points="717.2294,-298.2378 725.0605,-291.1016 714.4885,-291.7967 717.2294,-298.2378"/>
<text text-anchor="middle" x="665.3459" y="-329.1801" font-family="Times,serif" font-size="14.00" fill="#000000">目标丢失</text>
</g>
<!-- l -->
<g id="node5" class="node">
<title>l</title>
<ellipse fill="#d3d3d3" stroke="#000000" cx="775.706" cy="-34" rx="64.5498" ry="18"/>
<text text-anchor="middle" x="775.706" y="-29.8" font-family="Times,serif" font-size="14.00" fill="#000000">实时检测目标</text>
</g>
<!-- c&#45;&gt;l -->
<g id="edge4" class="edge">
<title>c&#45;&gt;l</title>
<path fill="none" stroke="#000000" d="M793.9542,-201.0573C788.7479,-184.2552 783.7048,-165.4514 780.706,-147.8313 775.8066,-119.0437 774.895,-85.6054 775.0013,-62.4525"/>
<polygon fill="#000000" stroke="#000000" points="778.5029,-62.3245 775.1166,-52.2855 771.5033,-62.2451 778.5029,-62.3245"/>
</g>
<!-- d -->
<g id="node4" class="node">
<title>d</title>
<ellipse fill="#d3d3d3" stroke="#000000" cx="865.706" cy="-535.7702" rx="174.7594" ry="53.3494"/>
<text text-anchor="middle" x="865.706" y="-556.7702" font-family="Times,serif" font-size="14.00" fill="#000000">定深</text>
<text text-anchor="middle" x="865.706" y="-539.9702" font-family="Times,serif" font-size="14.00" fill="#000000">因为目标水域水底较为平坦,</text>
<text text-anchor="middle" x="865.706" y="-523.1702" font-family="Times,serif" font-size="14.00" fill="#000000">采取上升一段时间后停止上升,</text>
<text text-anchor="middle" x="865.706" y="-506.3702" font-family="Times,serif" font-size="14.00" fill="#000000">然后利用ROV自带深度闭环实现定深</text>
</g>
<!-- d&#45;&gt;c -->
<g id="edge2" class="edge">
<title>d&#45;&gt;c</title>
<path fill="none" stroke="#000000" d="M855.6748,-482.4034C846.8308,-435.3528 833.9324,-366.7322 824.5768,-316.9597"/>
<polygon fill="#000000" stroke="#000000" points="827.9833,-316.1356 822.6962,-306.9543 821.1038,-317.4288 827.9833,-316.1356"/>
</g>
<!-- l&#45;&gt;b -->
<g id="edge5" class="edge">
<title>l&#45;&gt;b</title>
<path fill="none" stroke="#000000" d="M713.5347,-39.2128C623.5493,-47.2998 465.5458,-63.7435 445.706,-81 367.5269,-148.9994 426.5289,-287.6015 462.4062,-354.9426"/>
<polygon fill="#000000" stroke="#000000" points="459.4523,-356.8375 467.2985,-363.9571 465.6046,-353.4985 459.4523,-356.8375"/>
<text text-anchor="middle" x="447.9269" y="-170.0313" font-family="Times,serif" font-size="14.00" fill="#000000">视野内有目标</text>
</g>
<!-- l&#45;&gt;c -->
<g id="edge3" class="edge">
<title>l&#45;&gt;c</title>
<path fill="none" stroke="#000000" d="M778.7589,-52.1366C783.8018,-82.095 794.1035,-143.2939 802.0428,-190.4591"/>
<polygon fill="#000000" stroke="#000000" points="798.6378,-191.3166 803.7493,-200.5969 805.5407,-190.1546 798.6378,-191.3166"/>
<text text-anchor="middle" x="835.9269" y="-114.2156" font-family="Times,serif" font-size="14.00" fill="#000000">视野内无目标</text>
</g>
<!-- f&#45;&gt;d -->
<g id="edge16" class="edge">
<title>f&#45;&gt;d</title>
<path fill="none" stroke="#000000" d="M1156.5593,-676.8822C1134.7558,-668.2031 1108.16,-657.249 1084.706,-646.5446 1043.9766,-627.9558 999.7868,-605.9643 961.8391,-586.495"/>
<polygon fill="#000000" stroke="#000000" points="963.3312,-583.3267 952.8378,-581.8643 960.1289,-589.5513 963.3312,-583.3267"/>
<text text-anchor="middle" x="1091.706" y="-633.9446" font-family="Times,serif" font-size="14.00" fill="#000000">否</text>
</g>
<!-- e -->
<g id="node7" class="node">
<title>e</title>
<ellipse fill="#d3d3d3" stroke="#000000" cx="1224.706" cy="-118.4156" rx="159.5421" ry="29.3315"/>
<text text-anchor="middle" x="1224.706" y="-122.6156" font-family="Times,serif" font-size="14.00" fill="#000000">给手臂程序传递目标相对位置,</text>
<text text-anchor="middle" x="1224.706" y="-105.8156" font-family="Times,serif" font-size="14.00" fill="#000000">抓取并放入网框</text>
</g>
<!-- f&#45;&gt;e -->
<g id="edge8" class="edge">
<title>f&#45;&gt;e</title>
<path fill="none" stroke="#000000" d="M1188.8519,-675.8194C1171.3661,-647.261 1140.706,-589.5222 1140.706,-535.7702 1140.706,-535.7702 1140.706,-535.7702 1140.706,-253.8057 1140.706,-216.2031 1164.3912,-180.3593 1186.6077,-155.0092"/>
<polygon fill="#000000" stroke="#000000" points="1189.3028,-157.2475 1193.4275,-147.4885 1184.1173,-152.5453 1189.3028,-157.2475"/>
<text text-anchor="middle" x="1171.8189" y="-405.9801" font-family="Times,serif" font-size="14.00" fill="#000000">是而和</text>
<text text-anchor="middle" x="1171.8189" y="-389.1801" font-family="Times,serif" font-size="14.00" fill="#000000">上一目标</text>
<text text-anchor="middle" x="1171.8189" y="-372.3801" font-family="Times,serif" font-size="14.00" fill="#000000">是不同目标</text>
</g>
<!-- i -->
<g id="node8" class="node">
<title>i</title>
<ellipse fill="#d3d3d3" stroke="#000000" cx="1302.706" cy="-393.3801" rx="81.8868" ry="29.3315"/>
<text text-anchor="middle" x="1302.706" y="-397.5801" font-family="Times,serif" font-size="14.00" fill="#000000">判断是否达到抓取</text>
<text text-anchor="middle" x="1302.706" y="-380.7801" font-family="Times,serif" font-size="14.00" fill="#000000">同一目标次数上限</text>
</g>
<!-- f&#45;&gt;i -->
<g id="edge9" class="edge">
<title>f&#45;&gt;i</title>
<path fill="none" stroke="#000000" d="M1198.2141,-675.7135C1193.8604,-637.8161 1187.9287,-548.6166 1217.4802,-482.5958 1226.9561,-461.4256 1243.6634,-442.203 1259.7893,-427.0679"/>
<polygon fill="#000000" stroke="#000000" points="1262.5596,-429.2813 1267.6248,-419.9757 1257.8621,-424.0915 1262.5596,-429.2813"/>
<text text-anchor="middle" x="1247.8189" y="-548.3702" font-family="Times,serif" font-size="14.00" fill="#000000">是而和</text>
<text text-anchor="middle" x="1247.8189" y="-531.5702" font-family="Times,serif" font-size="14.00" fill="#000000">上一目标</text>
<text text-anchor="middle" x="1247.8189" y="-514.7702" font-family="Times,serif" font-size="14.00" fill="#000000">是同一目标</text>
</g>
<!-- e&#45;&gt;d -->
<g id="edge17" class="edge">
<title>e&#45;&gt;d</title>
<path fill="none" stroke="#000000" d="M1136.6423,-143.0529C1123.1144,-149.1662 1109.9343,-156.6708 1098.706,-165.8313 995.8477,-249.7473 924.7831,-391.6627 890.0772,-473.166"/>
<polygon fill="#000000" stroke="#000000" points="886.6767,-472.2232 886.0253,-482.798 893.1291,-474.9375 886.6767,-472.2232"/>
<text text-anchor="middle" x="971.706" y="-329.1801" font-family="Times,serif" font-size="14.00" fill="#000000">否</text>
</g>
<!-- e&#45;&gt;f -->
<g id="edge10" class="edge">
<title>e&#45;&gt;f</title>
<path fill="none" stroke="#000000" d="M1176.5359,-146.6769C1142.7929,-170.4734 1103.706,-207.9377 1103.706,-253.8057 1103.706,-535.7702 1103.706,-535.7702 1103.706,-535.7702 1103.706,-589.0014 1144.1163,-639.419 1172.7716,-668.4789"/>
<polygon fill="#000000" stroke="#000000" points="1170.5584,-671.2121 1180.1348,-675.7445 1175.475,-666.2294 1170.5584,-671.2121"/>
</g>
<!-- i&#45;&gt;f -->
<g id="edge12" class="edge">
<title>i&#45;&gt;f</title>
<path fill="none" stroke="#000000" d="M1306.176,-422.9726C1310.1314,-468.3685 1312.3357,-556.7549 1279.706,-621.7446 1270.0498,-640.9771 1252.9624,-657.5879 1237.1435,-670.013"/>
<polygon fill="#000000" stroke="#000000" points="1234.9158,-667.3091 1229.033,-676.1207 1239.1268,-672.9009 1234.9158,-667.3091"/>
<text text-anchor="middle" x="1330.8473" y="-539.9702" font-family="Times,serif" font-size="14.00" fill="#000000">是, 更换</text>
<text text-anchor="middle" x="1330.8473" y="-523.1702" font-family="Times,serif" font-size="14.00" fill="#000000">抓取目标</text>
</g>
<!-- i&#45;&gt;e -->
<g id="edge11" class="edge">
<title>i&#45;&gt;e</title>
<path fill="none" stroke="#000000" d="M1294.3586,-363.9541C1280.2625,-314.2626 1251.7338,-213.6936 1235.9114,-157.9168"/>
<polygon fill="#000000" stroke="#000000" points="1239.2075,-156.7109 1233.1112,-148.0457 1232.4732,-158.6213 1239.2075,-156.7109"/>
<text text-anchor="middle" x="1333.8838" y="-249.6057" font-family="Times,serif" font-size="14.00" fill="#000000">未达到抓取次数上限</text>
</g>
<!-- start -->
<g id="node9" class="node">
<title>start</title>
<polygon fill="none" stroke="#000000" points="147.706,-946.9603 108.4687,-928.9603 147.706,-910.9603 186.9433,-928.9603 147.706,-946.9603"/>
<polyline fill="none" stroke="#000000" points="119.3757,-933.9639 119.3757,-923.9567 "/>
<polyline fill="none" stroke="#000000" points="136.7989,-915.9639 158.613,-915.9639 "/>
<polyline fill="none" stroke="#000000" points="176.0362,-923.9567 176.0362,-933.9639 "/>
<polyline fill="none" stroke="#000000" points="158.613,-941.9567 136.7989,-941.9567 "/>
<text text-anchor="middle" x="147.706" y="-924.7603" font-family="Times,serif" font-size="14.00" fill="#000000">start</text>
</g>
<!-- g -->
<g id="node10" class="node">
<title>g</title>
<ellipse fill="none" stroke="#000000" cx="147.706" cy="-855.9603" rx="55.0439" ry="18"/>
<text text-anchor="middle" x="147.706" y="-851.7603" font-family="Times,serif" font-size="14.00" fill="#000000">全速下潜</text>
</g>
<!-- start&#45;&gt;g -->
<g id="edge13" class="edge">
<title>start&#45;&gt;g</title>
<path fill="none" stroke="#000000" d="M147.706,-910.9153C147.706,-902.8431 147.706,-893.1367 147.706,-884.142"/>
<polygon fill="#000000" stroke="#000000" points="151.2061,-884.0506 147.706,-874.0506 144.2061,-884.0507 151.2061,-884.0506"/>
</g>
<!-- h -->
<g id="node11" class="node">
<title>h</title>
<ellipse fill="none" stroke="#000000" cx="147.706" cy="-693.9603" rx="147.9122" ry="29.3315"/>
<text text-anchor="middle" x="147.706" y="-698.1603" font-family="Times,serif" font-size="14.00" fill="#000000">记录此时深度作为海底深度,</text>
<text text-anchor="middle" x="147.706" y="-681.3603" font-family="Times,serif" font-size="14.00" fill="#000000">算出气压补偿</text>
</g>
<!-- g&#45;&gt;h -->
<g id="edge14" class="edge">
<title>g&#45;&gt;h</title>
<path fill="none" stroke="#000000" d="M147.706,-837.6917C147.706,-812.6035 147.706,-766.8275 147.706,-733.6621"/>
<polygon fill="#000000" stroke="#000000" points="151.2061,-733.3794 147.706,-723.3794 144.2061,-733.3795 151.2061,-733.3794"/>
<text text-anchor="middle" x="203.5702" y="-807.3603" font-family="Times,serif" font-size="14.00" fill="#000000">当深度一定</text>
<text text-anchor="middle" x="203.5702" y="-790.5603" font-family="Times,serif" font-size="14.00" fill="#000000">时间内波动</text>
<text text-anchor="middle" x="203.5702" y="-773.7603" font-family="Times,serif" font-size="14.00" fill="#000000">稳定在5cm以内时</text>
<text text-anchor="middle" x="203.5702" y="-756.9603" font-family="Times,serif" font-size="14.00" fill="#000000">判断为坐底</text>
</g>
<!-- h&#45;&gt;d -->
<g id="edge15" class="edge">
<title>h&#45;&gt;d</title>
<path fill="none" stroke="#000000" d="M246.787,-672.1307C367.6631,-645.4992 573.2724,-600.1993 714.0915,-569.174"/>
<polygon fill="#000000" stroke="#000000" points="715.1037,-572.535 724.1164,-566.9653 713.5975,-565.6989 715.1037,-572.535"/>
</g>
</g>
</svg>
