<?xml version="1.0" encoding="UTF-8" standalone="no"?>
<!DOCTYPE svg PUBLIC "-//W3C//DTD SVG 1.1//EN"
 "http://www.w3.org/Graphics/SVG/1.1/DTD/svg11.dtd">
<!-- Generated by graphviz version 2.40.1 (20161225.0304)
 -->
<!-- Title: G Pages: 1 -->
<svg width="1114pt" height="1150pt"
 viewBox="0.00 0.00 1113.71 1150.22" xmlns="http://www.w3.org/2000/svg" xmlns:xlink="http://www.w3.org/1999/xlink">
<g id="graph0" class="graph" transform="scale(1 1) rotate(0) translate(4 1146.2229)">
<title>G</title>
<polygon fill="#ffffff" stroke="transparent" points="-4,4 -4,-1146.2229 1109.706,-1146.2229 1109.706,4 -4,4"/>
<g id="clust1" class="cluster">
<title>cluster_0</title>
<polygon fill="none" stroke="#0000ff" points="157.706,-269.2313 157.706,-663.4015 563.706,-663.4015 563.706,-269.2313 157.706,-269.2313"/>
<text text-anchor="middle" x="360.706" y="-646.8015" font-family="Times,serif" font-size="14.00" fill="#000000">移动至适当位置坐底</text>
</g>
<g id="clust2" class="cluster">
<title>cluster_1</title>
<polygon fill="none" stroke="#0000ff" points="571.706,-380.8626 571.706,-821.5916 1097.706,-821.5916 1097.706,-380.8626 571.706,-380.8626"/>
<text text-anchor="middle" x="834.706" y="-804.9916" font-family="Times,serif" font-size="14.00" fill="#000000">定深巡航</text>
</g>
<g id="clust3" class="cluster">
<title>cluster_2</title>
<polygon fill="none" stroke="#0000ff" points="98.706,-8 98.706,-234.4313 386.706,-234.4313 386.706,-8 98.706,-8"/>
<text text-anchor="middle" x="242.706" y="-217.8313" font-family="Times,serif" font-size="14.00" fill="#000000">抓取</text>
</g>
<!-- a -->
<g id="node1" class="node">
<title>a</title>
<ellipse fill="#d3d3d3" stroke="#000000" cx="360.706" cy="-306.6469" rx="170.4694" ry="29.3315"/>
<text text-anchor="middle" x="360.706" y="-310.8469" font-family="Times,serif" font-size="14.00" fill="#000000">边下潜边移动? 下潜一段调整一下?</text>
<text text-anchor="middle" x="360.706" y="-294.0469" font-family="Times,serif" font-size="14.00" fill="#000000">或者先直接坐底, 然后再调整?</text>
</g>
<!-- e -->
<g id="node7" class="node">
<title>e</title>
<ellipse fill="#d3d3d3" stroke="#000000" cx="242.706" cy="-172.2156" rx="135.7058" ry="29.3315"/>
<text text-anchor="middle" x="242.706" y="-176.4156" font-family="Times,serif" font-size="14.00" fill="#000000">识别首选目标相对位置,</text>
<text text-anchor="middle" x="242.706" y="-159.6156" font-family="Times,serif" font-size="14.00" fill="#000000">抓取并放入网框</text>
</g>
<!-- a&#45;&gt;e -->
<g id="edge8" class="edge">
<title>a&#45;&gt;e</title>
<path fill="none" stroke="#000000" d="M335.1017,-277.4773C317.474,-257.395 293.9159,-230.5564 274.9997,-209.0062"/>
<polygon fill="#000000" stroke="#000000" points="277.4875,-206.5349 268.2603,-201.3283 272.2267,-211.1527 277.4875,-206.5349"/>
<text text-anchor="middle" x="477.1155" y="-246.6313" font-family="Times,serif" font-size="14.00" fill="#000000">当深度一定时间内波动稳定在5cm以内时判断为坐底</text>
</g>
<!-- b -->
<g id="node2" class="node">
<title>b</title>
<ellipse fill="#d3d3d3" stroke="#000000" cx="360.706" cy="-577.4271" rx="194.9304" ry="53.3494"/>
<text text-anchor="middle" x="360.706" y="-598.4271" font-family="Times,serif" font-size="14.00" fill="#000000">计算出当前移动最小的</text>
<text text-anchor="middle" x="360.706" y="-581.6271" font-family="Times,serif" font-size="14.00" fill="#000000">抓取范围内目标最多的抓取范围,</text>
<text text-anchor="middle" x="360.706" y="-564.8271" font-family="Times,serif" font-size="14.00" fill="#000000">即前往目前目标最密集处?</text>
<text text-anchor="middle" x="360.706" y="-548.0271" font-family="Times,serif" font-size="14.00" fill="#000000">还是将置信值最高的一个作为抓取目标?</text>
</g>
<!-- b&#45;&gt;a -->
<g id="edge1" class="edge">
<title>b&#45;&gt;a</title>
<path fill="none" stroke="#000000" d="M360.706,-523.9296C360.706,-471.6284 360.706,-393.2109 360.706,-346.2688"/>
<polygon fill="#000000" stroke="#000000" points="364.2061,-346.183 360.706,-336.1831 357.2061,-346.1831 364.2061,-346.183"/>
</g>
<!-- k -->
<g id="node3" class="node">
<title>k</title>
<ellipse fill="none" stroke="#000000" cx="360.706" cy="-747.4965" rx="87.456" ry="18"/>
<text text-anchor="middle" x="360.706" y="-743.2965" font-family="Times,serif" font-size="14.00" fill="#000000">原地半速转圈扫描</text>
</g>
<!-- k&#45;&gt;b -->
<g id="edge2" class="edge">
<title>k&#45;&gt;b</title>
<path fill="none" stroke="#000000" d="M360.706,-729.2961C360.706,-708.2646 360.706,-672.498 360.706,-640.9563"/>
<polygon fill="#000000" stroke="#000000" points="364.2061,-640.888 360.706,-630.8881 357.2061,-640.8881 364.2061,-640.888"/>
<text text-anchor="middle" x="401.9269" y="-675.6015" font-family="Times,serif" font-size="14.00" fill="#000000">视野内有目标</text>
</g>
<!-- c -->
<g id="node4" class="node">
<title>c</title>
<ellipse fill="#d3d3d3" stroke="#000000" cx="760.706" cy="-747.4965" rx="145.2672" ry="41.0911"/>
<text text-anchor="middle" x="760.706" y="-760.0965" font-family="Times,serif" font-size="14.00" fill="#000000">路径规划</text>
<text text-anchor="middle" x="760.706" y="-743.2965" font-family="Times,serif" font-size="14.00" fill="#000000">因为目前摄像头向前的视野不够多,</text>
<text text-anchor="middle" x="760.706" y="-726.4965" font-family="Times,serif" font-size="14.00" fill="#000000">路径规划我觉得走直线就可以</text>
</g>
<!-- k&#45;&gt;c -->
<g id="edge16" class="edge">
<title>k&#45;&gt;c</title>
<path fill="none" stroke="#000000" d="M448.4877,-747.4965C494.2902,-747.4965 551.7024,-747.4965 604.7615,-747.4965"/>
<polygon fill="#000000" stroke="#000000" points="604.9618,-750.9966 614.9618,-747.4965 604.9617,-743.9966 604.9618,-750.9966"/>
<text text-anchor="middle" x="531.7532" y="-754.6965" font-family="Times,serif" font-size="14.00" fill="#000000">视野内无目标</text>
</g>
<!-- d -->
<g id="node5" class="node">
<title>d</title>
<ellipse fill="#d3d3d3" stroke="#000000" cx="760.706" cy="-430.1576" rx="181.0981" ry="41.0911"/>
<text text-anchor="middle" x="760.706" y="-442.7576" font-family="Times,serif" font-size="14.00" fill="#000000">定深</text>
<text text-anchor="middle" x="760.706" y="-425.9576" font-family="Times,serif" font-size="14.00" fill="#000000">没有距离i传感器似乎无法实现定深?</text>
<text text-anchor="middle" x="760.706" y="-409.1576" font-family="Times,serif" font-size="14.00" fill="#000000">或者上升到足够高的高度巡航?</text>
</g>
<!-- c&#45;&gt;d -->
<g id="edge3" class="edge">
<title>c&#45;&gt;d</title>
<path fill="none" stroke="#000000" d="M755.9747,-706.01C753.4252,-648.3994 753.2906,-544.2214 755.571,-481.6945"/>
<polygon fill="#000000" stroke="#000000" points="759.07,-481.7868 755.9743,-471.6543 752.0756,-481.5057 759.07,-481.7868"/>
</g>
<!-- l -->
<g id="node6" class="node">
<title>l</title>
<ellipse fill="#d3d3d3" stroke="#000000" cx="1024.706" cy="-430.1576" rx="64.5498" ry="18"/>
<text text-anchor="middle" x="1024.706" y="-425.9576" font-family="Times,serif" font-size="14.00" fill="#000000">实时检测目标</text>
</g>
<!-- c&#45;&gt;l -->
<g id="edge6" class="edge">
<title>c&#45;&gt;l</title>
<path fill="none" stroke="#000000" d="M780.7888,-706.1752C805.0117,-658.9175 848.9857,-580.7942 900.706,-524.2526 926.8439,-495.6781 962.5738,-469.61 988.9669,-452.1959"/>
<polygon fill="#000000" stroke="#000000" points="991.0536,-455.014 997.5323,-446.6308 987.2399,-449.1441 991.0536,-455.014"/>
</g>
<!-- d&#45;&gt;c -->
<g id="edge4" class="edge">
<title>d&#45;&gt;c</title>
<path fill="none" stroke="#000000" d="M765.4377,-471.6543C767.987,-529.2704 768.1213,-633.4487 765.8406,-695.9707"/>
<polygon fill="#000000" stroke="#000000" points="762.3416,-695.8775 765.4372,-706.01 769.336,-696.1586 762.3416,-695.8775"/>
</g>
<!-- l&#45;&gt;a -->
<g id="edge7" class="edge">
<title>l&#45;&gt;a</title>
<path fill="none" stroke="#000000" d="M1004.4496,-412.8884C990.3249,-401.84 970.5254,-388.2411 950.706,-380.8626 875.5169,-352.8708 674.1413,-331.5115 527.5222,-319.0493"/>
<polygon fill="#000000" stroke="#000000" points="527.7633,-315.5573 517.5045,-318.2044 527.175,-322.5325 527.7633,-315.5573"/>
<text text-anchor="middle" x="955.9269" y="-358.2626" font-family="Times,serif" font-size="14.00" fill="#000000">视野内有目标</text>
</g>
<!-- l&#45;&gt;c -->
<g id="edge5" class="edge">
<title>l&#45;&gt;c</title>
<path fill="none" stroke="#000000" d="M1018.9111,-448.1709C1003.409,-493.851 956.9109,-615.7191 880.706,-688.2015 872.7778,-695.7424 863.7064,-702.5153 854.1806,-708.5476"/>
<polygon fill="#000000" stroke="#000000" points="852.086,-705.7233 845.3245,-713.88 855.6968,-711.7201 852.086,-705.7233"/>
<text text-anchor="middle" x="1028.9269" y="-573.2271" font-family="Times,serif" font-size="14.00" fill="#000000">视野内无目标</text>
</g>
<!-- f -->
<g id="node8" class="node">
<title>f</title>
<ellipse fill="#d3d3d3" stroke="#000000" cx="243.706" cy="-34" rx="131.4212" ry="18"/>
<text text-anchor="middle" x="243.706" y="-29.8" font-family="Times,serif" font-size="14.00" fill="#000000">识别抓取范围内是否还有目标</text>
</g>
<!-- e&#45;&gt;f -->
<g id="edge10" class="edge">
<title>e&#45;&gt;f</title>
<path fill="none" stroke="#000000" d="M239.8249,-142.6467C239.3586,-136.7408 238.9493,-130.5777 238.706,-124.8 237.6814,-100.466 237.0267,-94.2976 238.706,-70 238.8811,-67.4663 239.1247,-64.8394 239.411,-62.2112"/>
<polygon fill="#000000" stroke="#000000" points="242.8867,-62.6239 240.6719,-52.2632 235.9422,-61.7437 242.8867,-62.6239"/>
</g>
<!-- i -->
<g id="node12" class="node">
<title>i</title>
<ellipse fill="none" stroke="#000000" cx="147.706" cy="-866.5916" rx="143.3297" ry="18"/>
<text text-anchor="middle" x="147.706" y="-862.3916" font-family="Times,serif" font-size="14.00" fill="#000000">根据深度传感器反馈上浮0.5m</text>
</g>
<!-- e&#45;&gt;i -->
<g id="edge14" class="edge">
<title>e&#45;&gt;i</title>
<path fill="none" stroke="#000000" d="M201.337,-200.4801C171.2272,-224.724 135.706,-262.6489 135.706,-306.6469 135.706,-747.4965 135.706,-747.4965 135.706,-747.4965 135.706,-778.6728 139.8271,-814.2095 143.2392,-838.289"/>
<polygon fill="#000000" stroke="#000000" points="139.8216,-839.1055 144.7397,-848.4896 146.747,-838.0867 139.8216,-839.1055"/>
<text text-anchor="middle" x="142.706" y="-493.6526" font-family="Times,serif" font-size="14.00" fill="#000000">否</text>
</g>
<!-- f&#45;&gt;e -->
<g id="edge9" class="edge">
<title>f&#45;&gt;e</title>
<path fill="none" stroke="#000000" d="M243.5744,-52.1814C243.4275,-72.4929 243.1851,-105.9935 242.9937,-132.4492"/>
<polygon fill="#000000" stroke="#000000" points="239.493,-132.5398 242.9205,-142.5649 246.4929,-132.5905 239.493,-132.5398"/>
<text text-anchor="middle" x="250.0973" y="-93.2" font-family="Times,serif" font-size="14.00" fill="#000000">是</text>
</g>
<!-- start -->
<g id="node9" class="node">
<title>start</title>
<polygon fill="none" stroke="#000000" points="147.706,-1142.2229 108.4687,-1124.2229 147.706,-1106.2229 186.9433,-1124.2229 147.706,-1142.2229"/>
<polyline fill="none" stroke="#000000" points="119.3757,-1129.2264 119.3757,-1119.2193 "/>
<polyline fill="none" stroke="#000000" points="136.7989,-1111.2264 158.613,-1111.2264 "/>
<polyline fill="none" stroke="#000000" points="176.0362,-1119.2193 176.0362,-1129.2264 "/>
<polyline fill="none" stroke="#000000" points="158.613,-1137.2193 136.7989,-1137.2193 "/>
<text text-anchor="middle" x="147.706" y="-1120.0229" font-family="Times,serif" font-size="14.00" fill="#000000">start</text>
</g>
<!-- g -->
<g id="node10" class="node">
<title>g</title>
<ellipse fill="none" stroke="#000000" cx="147.706" cy="-1051.2229" rx="55.0439" ry="18"/>
<text text-anchor="middle" x="147.706" y="-1047.0229" font-family="Times,serif" font-size="14.00" fill="#000000">全速下潜</text>
</g>
<!-- start&#45;&gt;g -->
<g id="edge11" class="edge">
<title>start&#45;&gt;g</title>
<path fill="none" stroke="#000000" d="M147.706,-1106.1779C147.706,-1098.1057 147.706,-1088.3992 147.706,-1079.4046"/>
<polygon fill="#000000" stroke="#000000" points="151.2061,-1079.3132 147.706,-1069.3132 144.2061,-1079.3133 151.2061,-1079.3132"/>
</g>
<!-- h -->
<g id="node11" class="node">
<title>h</title>
<ellipse fill="none" stroke="#000000" cx="147.706" cy="-951.0072" rx="147.9122" ry="29.3315"/>
<text text-anchor="middle" x="147.706" y="-955.2072" font-family="Times,serif" font-size="14.00" fill="#000000">记录此时深度作为海底深度,</text>
<text text-anchor="middle" x="147.706" y="-938.4072" font-family="Times,serif" font-size="14.00" fill="#000000">算出气压补偿</text>
</g>
<!-- g&#45;&gt;h -->
<g id="edge12" class="edge">
<title>g&#45;&gt;h</title>
<path fill="none" stroke="#000000" d="M147.706,-1032.8418C147.706,-1021.1105 147.706,-1005.4377 147.706,-990.9488"/>
<polygon fill="#000000" stroke="#000000" points="151.2061,-990.6811 147.706,-980.6811 144.2061,-990.6812 151.2061,-990.6811"/>
<text text-anchor="middle" x="214.5084" y="-1002.6229" font-family="Times,serif" font-size="14.00" fill="#000000">根据深度判断是否坐底</text>
</g>
<!-- h&#45;&gt;i -->
<g id="edge13" class="edge">
<title>h&#45;&gt;i</title>
<path fill="none" stroke="#000000" d="M147.706,-921.4827C147.706,-912.9246 147.706,-903.5996 147.706,-895.1046"/>
<polygon fill="#000000" stroke="#000000" points="151.2061,-894.9085 147.706,-884.9085 144.2061,-894.9085 151.2061,-894.9085"/>
</g>
<!-- i&#45;&gt;k -->
<g id="edge15" class="edge">
<title>i&#45;&gt;k</title>
<path fill="none" stroke="#000000" d="M179.1349,-849.0187C216.8972,-827.9046 280.2799,-792.4653 321.2857,-769.5377"/>
<polygon fill="#000000" stroke="#000000" points="323.1645,-772.4971 330.1847,-764.5619 319.7483,-766.3873 323.1645,-772.4971"/>
</g>
</g>
</svg>
