<?xml version="1.0" encoding="UTF-8" standalone="no"?>
<!DOCTYPE svg PUBLIC "-//W3C//DTD SVG 1.1//EN"
 "http://www.w3.org/Graphics/SVG/1.1/DTD/svg11.dtd">
<!-- Generated by graphviz version 2.40.1 (20161225.0304)
 -->
<!-- Title: G Pages: 1 -->
<svg width="631pt" height="1587pt"
 viewBox="0.00 0.00 631.00 1586.98" xmlns="http://www.w3.org/2000/svg" xmlns:xlink="http://www.w3.org/1999/xlink">
<g id="graph0" class="graph" transform="scale(1 1) rotate(0) translate(4 1582.9816)">
<title>G</title>
<polygon fill="#ffffff" stroke="transparent" points="-4,4 -4,-1582.9816 627,-1582.9816 627,4 -4,4"/>
<g id="clust1" class="cluster">
<title>cluster_0</title>
<polygon fill="none" stroke="#0000ff" points="8,-470.2626 8,-1064.0839 435,-1064.0839 435,-470.2626 8,-470.2626"/>
<text text-anchor="middle" x="221.5" y="-1047.4839" font-family="Times,serif" font-size="14.00" fill="#0000ff">移动至适当位置坐底</text>
</g>
<g id="clust2" class="cluster">
<title>cluster_1</title>
<polygon fill="none" stroke="#0000ff" points="174,-1098.8839 174,-1570.9816 540,-1570.9816 540,-1098.8839 174,-1098.8839"/>
<text text-anchor="middle" x="357" y="-1554.3816" font-family="Times,serif" font-size="14.00" fill="#0000ff">定深巡航</text>
</g>
<g id="clust3" class="cluster">
<title>cluster_2</title>
<polygon fill="none" stroke="#0000ff" points="279,-8 279,-451.2626 615,-451.2626 615,-8 279,-8"/>
<text text-anchor="middle" x="447" y="-434.6626" font-family="Times,serif" font-size="14.00" fill="#0000ff">抓取</text>
</g>
<!-- x -->
<g id="node1" class="node">
<title>x</title>
<ellipse fill="#d3d3d3" stroke="#000000" cx="370" cy="-710.4526" rx="51.0319" ry="18"/>
<text text-anchor="middle" x="370" y="-706.2526" font-family="Times,serif" font-size="14.00" fill="#000000">持续下潜</text>
</g>
<!-- a -->
<g id="node2" class="node">
<title>a</title>
<ellipse fill="#d3d3d3" stroke="#000000" cx="279" cy="-519.5576" rx="147.9122" ry="41.0911"/>
<text text-anchor="middle" x="279" y="-532.1576" font-family="Times,serif" font-size="14.00" fill="#000000">坐底,</text>
<text text-anchor="middle" x="279" y="-515.3576" font-family="Times,serif" font-size="14.00" fill="#000000">记录此时深度作为海底深度,</text>
<text text-anchor="middle" x="279" y="-498.5576" font-family="Times,serif" font-size="14.00" fill="#000000">算出气压补偿</text>
</g>
<!-- x&#45;&gt;a -->
<g id="edge1" class="edge">
<title>x&#45;&gt;a</title>
<path fill="none" stroke="#000000" d="M361.4389,-692.4937C348.1807,-664.6813 322.2031,-610.1867 302.9361,-569.7694"/>
<polygon fill="#000000" stroke="#000000" points="306.0275,-568.1208 298.565,-560.6 299.7088,-571.133 306.0275,-568.1208"/>
<text text-anchor="middle" x="396.1939" y="-635.6526" font-family="Times,serif" font-size="14.00" fill="#000000">当深度一定时间</text>
<text text-anchor="middle" x="396.1939" y="-618.8526" font-family="Times,serif" font-size="14.00" fill="#000000">内波动稳定在5cm</text>
<text text-anchor="middle" x="396.1939" y="-602.0526" font-family="Times,serif" font-size="14.00" fill="#000000">以内时判断为坐底</text>
</g>
<!-- f -->
<g id="node8" class="node">
<title>f</title>
<ellipse fill="#d3d3d3" stroke="#000000" cx="431" cy="-400.4626" rx="136.0991" ry="18"/>
<text text-anchor="middle" x="431" y="-396.2626" font-family="Times,serif" font-size="14.00" fill="#000000">识别抓取范围内是否有可抓目标</text>
</g>
<!-- a&#45;&gt;f -->
<g id="edge10" class="edge">
<title>a&#45;&gt;f</title>
<path fill="none" stroke="#000000" d="M328.7705,-480.5614C352.2083,-462.1974 379.4396,-440.8612 399.9012,-424.8291"/>
<polygon fill="#000000" stroke="#000000" points="402.2325,-427.4489 407.9454,-418.5263 397.9152,-421.9388 402.2325,-427.4489"/>
</g>
<!-- b -->
<g id="node3" class="node">
<title>b</title>
<ellipse fill="#d3d3d3" stroke="#000000" cx="245" cy="-1001.8683" rx="182.4414" ry="29.3315"/>
<text text-anchor="middle" x="245" y="-1006.0683" font-family="Times,serif" font-size="14.00" fill="#000000">以视野内置信度最高的为目标,</text>
<text text-anchor="middle" x="245" y="-989.2683" font-family="Times,serif" font-size="14.00" fill="#000000">前后或左右移动使目标中心在阈值框内</text>
</g>
<!-- b&#45;&gt;x -->
<g id="edge2" class="edge">
<title>b&#45;&gt;x</title>
<path fill="none" stroke="#000000" d="M339.4304,-976.5504C359.1013,-965.4323 374,-949.5768 374,-927.0526 374,-927.0526 374,-927.0526 374,-790.6526 374,-773.489 373.0748,-754.2847 372.1144,-738.9725"/>
<polygon fill="#000000" stroke="#000000" points="375.58,-738.34 371.4215,-728.5954 368.5956,-738.8064 375.58,-738.34"/>
<text text-anchor="middle" x="400.6399" y="-859.4526" font-family="Times,serif" font-size="14.00" fill="#000000">目标丢失</text>
</g>
<!-- y -->
<g id="node4" class="node">
<title>y</title>
<ellipse fill="#d3d3d3" stroke="#000000" cx="177" cy="-863.6526" rx="161.0795" ry="18"/>
<text text-anchor="middle" x="177" y="-859.4526" font-family="Times,serif" font-size="14.00" fill="#000000">全速下潜的同时实时前后或左右微调</text>
</g>
<!-- b&#45;&gt;y -->
<g id="edge4" class="edge">
<title>b&#45;&gt;y</title>
<path fill="none" stroke="#000000" d="M230.4123,-972.2176C218.5448,-948.0959 201.9322,-914.3294 190.3977,-890.8845"/>
<polygon fill="#000000" stroke="#000000" points="193.5,-889.2618 185.945,-881.834 187.219,-892.352 193.5,-889.2618"/>
<text text-anchor="middle" x="275.7928" y="-922.8526" font-family="Times,serif" font-size="14.00" fill="#000000">目标中心在阈值框内</text>
</g>
<!-- y&#45;&gt;x -->
<g id="edge3" class="edge">
<title>y&#45;&gt;x</title>
<path fill="none" stroke="#000000" d="M199.5173,-845.7788C234.5537,-817.9675 302.1077,-764.3443 340.8297,-733.6075"/>
<polygon fill="#000000" stroke="#000000" points="343.4377,-736.006 349.094,-727.0474 339.0856,-730.5233 343.4377,-736.006"/>
<text text-anchor="middle" x="317.6399" y="-786.4526" font-family="Times,serif" font-size="14.00" fill="#000000">目标丢失</text>
</g>
<!-- y&#45;&gt;a -->
<g id="edge5" class="edge">
<title>y&#45;&gt;a</title>
<path fill="none" stroke="#000000" d="M178.558,-845.3675C179.6811,-830.6113 181,-809.3108 181,-790.6526 181,-790.6526 181,-790.6526 181,-623.0526 181,-600.1992 193.7547,-580.3653 210.0613,-564.3465"/>
<polygon fill="#000000" stroke="#000000" points="212.7783,-566.6029 217.7704,-557.2579 208.0403,-561.4502 212.7783,-566.6029"/>
<text text-anchor="middle" x="237.1939" y="-723.0526" font-family="Times,serif" font-size="14.00" fill="#000000">当深度一定时间</text>
<text text-anchor="middle" x="237.1939" y="-706.2526" font-family="Times,serif" font-size="14.00" fill="#000000">内波动稳定在5cm</text>
<text text-anchor="middle" x="237.1939" y="-689.4526" font-family="Times,serif" font-size="14.00" fill="#000000">以内时判断为坐底</text>
</g>
<!-- c -->
<g id="node5" class="node">
<title>c</title>
<ellipse fill="#d3d3d3" stroke="#000000" cx="330" cy="-1303.6584" rx="122.2416" ry="53.3494"/>
<text text-anchor="middle" x="330" y="-1324.6584" font-family="Times,serif" font-size="14.00" fill="#000000">路径规划</text>
<text text-anchor="middle" x="330" y="-1307.8584" font-family="Times,serif" font-size="14.00" fill="#000000">因为摄像头向前的视野不够多,</text>
<text text-anchor="middle" x="330" y="-1291.0584" font-family="Times,serif" font-size="14.00" fill="#000000">路径规划无法依靠视觉,</text>
<text text-anchor="middle" x="330" y="-1274.2584" font-family="Times,serif" font-size="14.00" fill="#000000">采取蛇形走位遍历水域</text>
</g>
<!-- l -->
<g id="node7" class="node">
<title>l</title>
<ellipse fill="#d3d3d3" stroke="#000000" cx="293" cy="-1124.8839" rx="64.5498" ry="18"/>
<text text-anchor="middle" x="293" y="-1120.6839" font-family="Times,serif" font-size="14.00" fill="#000000">实时检测目标</text>
</g>
<!-- c&#45;&gt;l -->
<g id="edge8" class="edge">
<title>c&#45;&gt;l</title>
<path fill="none" stroke="#000000" d="M310.0571,-1250.8344C306.1473,-1238.7131 302.4912,-1225.7731 300,-1213.4839 295.9635,-1193.5721 294.2275,-1170.7043 293.4933,-1153.1889"/>
<polygon fill="#000000" stroke="#000000" points="296.9866,-1152.9264 293.154,-1143.049 289.9905,-1153.1605 296.9866,-1152.9264"/>
</g>
<!-- d -->
<g id="node6" class="node">
<title>d</title>
<ellipse fill="#d3d3d3" stroke="#000000" cx="357" cy="-1485.0072" rx="174.7594" ry="53.3494"/>
<text text-anchor="middle" x="357" y="-1506.0072" font-family="Times,serif" font-size="14.00" fill="#000000">定深</text>
<text text-anchor="middle" x="357" y="-1489.2072" font-family="Times,serif" font-size="14.00" fill="#000000">因为目标水域水底较为平坦,</text>
<text text-anchor="middle" x="357" y="-1472.4072" font-family="Times,serif" font-size="14.00" fill="#000000">采取上升一段时间后停止上升,</text>
<text text-anchor="middle" x="357" y="-1455.6072" font-family="Times,serif" font-size="14.00" fill="#000000">然后利用ROV自带深度闭环实现定深</text>
</g>
<!-- d&#45;&gt;c -->
<g id="edge6" class="edge">
<title>d&#45;&gt;c</title>
<path fill="none" stroke="#000000" d="M349.0451,-1431.5774C346.0374,-1411.3754 342.5851,-1388.1879 339.4531,-1367.1512"/>
<polygon fill="#000000" stroke="#000000" points="342.8792,-1366.3949 337.9446,-1357.0193 335.9555,-1367.4258 342.8792,-1366.3949"/>
</g>
<!-- l&#45;&gt;b -->
<g id="edge9" class="edge">
<title>l&#45;&gt;b</title>
<path fill="none" stroke="#000000" d="M285.9174,-1106.7325C279.1934,-1089.4999 268.8645,-1063.0289 260.267,-1040.995"/>
<polygon fill="#000000" stroke="#000000" points="263.4769,-1039.5926 256.5812,-1031.5489 256.9557,-1042.1371 263.4769,-1039.5926"/>
<text text-anchor="middle" x="319.2209" y="-1076.2839" font-family="Times,serif" font-size="14.00" fill="#000000">视野内有目标</text>
</g>
<!-- l&#45;&gt;c -->
<g id="edge7" class="edge">
<title>l&#45;&gt;c</title>
<path fill="none" stroke="#000000" d="M296.7452,-1142.9798C301.4516,-1165.72 309.7788,-1205.9547 316.9226,-1240.4718"/>
<polygon fill="#000000" stroke="#000000" points="313.5448,-1241.4211 318.999,-1250.5042 320.3995,-1240.0023 313.5448,-1241.4211"/>
<text text-anchor="middle" x="333.1413" y="-1200.8839" font-family="Times,serif" font-size="14.00" fill="#000000">视野</text>
<text text-anchor="middle" x="333.1413" y="-1184.0839" font-family="Times,serif" font-size="14.00" fill="#000000">内无目标</text>
</g>
<!-- f&#45;&gt;d -->
<g id="edge17" class="edge">
<title>f&#45;&gt;d</title>
<path fill="none" stroke="#000000" d="M458.5097,-418.1119C486.8776,-438.7072 527,-475.6055 527,-519.5576 527,-1394.3328 527,-1394.3328 527,-1394.3328 527,-1416.0359 516.0799,-1432.5623 499.775,-1445.142"/>
<polygon fill="#000000" stroke="#000000" points="497.5648,-1442.4162 491.3624,-1451.0059 501.5676,-1448.1588 497.5648,-1442.4162"/>
<text text-anchor="middle" x="557.5326" y="-922.8526" font-family="Times,serif" font-size="14.00" fill="#000000">无可抓目标</text>
</g>
<!-- e -->
<g id="node9" class="node">
<title>e</title>
<ellipse fill="#d3d3d3" stroke="#000000" cx="447" cy="-45.4156" rx="159.5421" ry="29.3315"/>
<text text-anchor="middle" x="447" y="-49.6156" font-family="Times,serif" font-size="14.00" fill="#000000">给手臂程序传递目标相对位置,</text>
<text text-anchor="middle" x="447" y="-32.8156" font-family="Times,serif" font-size="14.00" fill="#000000">抓取并放入网框</text>
</g>
<!-- f&#45;&gt;e -->
<g id="edge11" class="edge">
<title>f&#45;&gt;e</title>
<path fill="none" stroke="#000000" d="M377.1258,-383.9065C348.8446,-371.5233 320,-351.2884 320,-320.2626 320,-320.2626 320,-320.2626 320,-137.0313 320,-110.2756 338.7689,-90.5517 361.876,-76.4073"/>
<polygon fill="#000000" stroke="#000000" points="363.6126,-79.4462 370.5587,-71.446 360.1397,-73.3684 363.6126,-79.4462"/>
<text text-anchor="middle" x="351.1129" y="-241.2469" font-family="Times,serif" font-size="14.00" fill="#000000">有, 且和</text>
<text text-anchor="middle" x="351.1129" y="-224.4469" font-family="Times,serif" font-size="14.00" fill="#000000">上一目标</text>
<text text-anchor="middle" x="351.1129" y="-207.6469" font-family="Times,serif" font-size="14.00" fill="#000000">是不同目标</text>
</g>
<!-- i -->
<g id="node10" class="node">
<title>i</title>
<ellipse fill="#d3d3d3" stroke="#000000" cx="502" cy="-228.6469" rx="81.8868" ry="29.3315"/>
<text text-anchor="middle" x="502" y="-232.8469" font-family="Times,serif" font-size="14.00" fill="#000000">判断是否达到抓取</text>
<text text-anchor="middle" x="502" y="-216.0469" font-family="Times,serif" font-size="14.00" fill="#000000">同一目标次数上限</text>
</g>
<!-- f&#45;&gt;i -->
<g id="edge12" class="edge">
<title>f&#45;&gt;i</title>
<path fill="none" stroke="#000000" d="M432.1036,-382.1845C433.9646,-360.549 438.8918,-323.8294 451.7742,-295.0626 456.4336,-284.658 462.9884,-274.3613 469.8287,-265.0933"/>
<polygon fill="#000000" stroke="#000000" points="472.8128,-266.9549 476.1447,-256.8976 467.2682,-262.682 472.8128,-266.9549"/>
<text text-anchor="middle" x="482.1129" y="-332.8626" font-family="Times,serif" font-size="14.00" fill="#000000">有, 且和</text>
<text text-anchor="middle" x="482.1129" y="-316.0626" font-family="Times,serif" font-size="14.00" fill="#000000">上一目标</text>
<text text-anchor="middle" x="482.1129" y="-299.2626" font-family="Times,serif" font-size="14.00" fill="#000000">是同一目标</text>
</g>
<!-- e&#45;&gt;f -->
<g id="edge13" class="edge">
<title>e&#45;&gt;f</title>
<path fill="none" stroke="#000000" d="M423.7305,-74.5419C412.321,-91.704 401,-114.428 401,-137.0313 401,-320.2626 401,-320.2626 401,-320.2626 401,-338.6765 408.0235,-358.0472 415.2738,-373.1378"/>
<polygon fill="#000000" stroke="#000000" points="412.3317,-375.072 419.9995,-382.3833 418.5647,-371.8861 412.3317,-375.072"/>
</g>
<!-- i&#45;&gt;f -->
<g id="edge15" class="edge">
<title>i&#45;&gt;f</title>
<path fill="none" stroke="#000000" d="M513.7503,-257.7935C521.7719,-282.5722 528.5638,-318.3407 514,-345.4626 506.7575,-358.9502 494.5926,-369.6882 481.7779,-377.9648"/>
<polygon fill="#000000" stroke="#000000" points="479.6382,-375.1664 472.8549,-383.3051 483.233,-381.1729 479.6382,-375.1664"/>
<text text-anchor="middle" x="557.3913" y="-332.8626" font-family="Times,serif" font-size="14.00" fill="#000000">达到抓取</text>
<text text-anchor="middle" x="557.3913" y="-316.0626" font-family="Times,serif" font-size="14.00" fill="#000000">次数上限,</text>
<text text-anchor="middle" x="557.3913" y="-299.2626" font-family="Times,serif" font-size="14.00" fill="#000000">更换抓取目标</text>
</g>
<!-- i&#45;&gt;e -->
<g id="edge14" class="edge">
<title>i&#45;&gt;e</title>
<path fill="none" stroke="#000000" d="M493.1633,-199.2077C483.8495,-168.1788 469.1277,-119.1335 458.82,-84.7936"/>
<polygon fill="#000000" stroke="#000000" points="462.1332,-83.6572 455.906,-75.0856 455.4287,-85.6697 462.1332,-83.6572"/>
<text text-anchor="middle" x="503.1606" y="-149.6313" font-family="Times,serif" font-size="14.00" fill="#000000">未达到</text>
<text text-anchor="middle" x="503.1606" y="-132.8313" font-family="Times,serif" font-size="14.00" fill="#000000">抓取次数</text>
<text text-anchor="middle" x="503.1606" y="-116.0313" font-family="Times,serif" font-size="14.00" fill="#000000">上限</text>
</g>
<!-- start -->
<g id="node11" class="node">
<title>start</title>
<ellipse fill="#ff0000" stroke="#ff0000" cx="471" cy="-790.6526" rx="27.8228" ry="18"/>
<text text-anchor="middle" x="471" y="-786.4526" font-family="Times,serif" font-size="14.00" fill="#ffffff">start</text>
</g>
<!-- start&#45;&gt;x -->
<g id="edge16" class="edge">
<title>start&#45;&gt;x</title>
<path fill="none" stroke="#000000" d="M453.4071,-776.6829C438.4476,-764.8041 416.6642,-747.5068 399.1104,-733.568"/>
<polygon fill="#000000" stroke="#000000" points="400.8892,-730.5112 390.8813,-727.0336 396.5362,-735.9932 400.8892,-730.5112"/>
</g>
</g>
</svg>
