<?xml version="1.0" encoding="UTF-8" standalone="no"?>
<!DOCTYPE svg PUBLIC "-//W3C//DTD SVG 1.1//EN"
 "http://www.w3.org/Graphics/SVG/1.1/DTD/svg11.dtd">
<!-- Generated by graphviz version 2.40.1 (20161225.0304)
 -->
<!-- Title: G Pages: 1 -->
<svg width="995pt" height="712pt"
 viewBox="0.00 0.00 995.00 711.60" xmlns="http://www.w3.org/2000/svg" xmlns:xlink="http://www.w3.org/1999/xlink">
<g id="graph0" class="graph" transform="scale(1 1) rotate(0) translate(4 707.6)">
<title>G</title>
<polygon fill="#ffffff" stroke="transparent" points="-4,4 -4,-707.6 991,-707.6 991,4 -4,4"/>
<g id="clust1" class="cluster">
<title>cluster_dive</title>
<polygon fill="none" stroke="#0000ff" points="8,-8 8,-695.6 397,-695.6 397,-8 8,-8"/>
<text text-anchor="middle" x="202.5" y="-679" font-family="Times,serif" font-size="14.00" fill="#0000ff">移动至适当位置坐底</text>
</g>
<g id="clust2" class="cluster">
<title>cluster_curise</title>
<polygon fill="none" stroke="#0000ff" points="717,-110.8 717,-584 979,-584 979,-110.8 717,-110.8"/>
<text text-anchor="middle" x="848" y="-567.4" font-family="Times,serif" font-size="14.00" fill="#0000ff">定深巡航</text>
</g>
<g id="clust3" class="cluster">
<title>cluster_grasp</title>
<polygon fill="none" stroke="#0000ff" points="467,-203.8 467,-695.6 709,-695.6 709,-203.8 467,-203.8"/>
<text text-anchor="middle" x="588" y="-679" font-family="Times,serif" font-size="14.00" fill="#0000ff">抓取</text>
</g>
<!-- x -->
<g id="node1" class="node">
<title>x</title>
<polygon fill="#d3d3d3" stroke="#000000" points="386.3219,-436.2 311.6781,-436.2 311.6781,-400.2 386.3219,-400.2 386.3219,-436.2"/>
<text text-anchor="middle" x="349" y="-414" font-family="Times,serif" font-size="14.00" fill="#000000">持续下潜</text>
</g>
<!-- a -->
<g id="node2" class="node">
<title>a</title>
<polygon fill="#d3d3d3" stroke="#000000" points="389.3884,-266.2014 260.6116,-266.2014 260.6116,-207.3986 389.3884,-207.3986 389.3884,-266.2014"/>
<text text-anchor="middle" x="325" y="-249.4" font-family="Times,serif" font-size="14.00" fill="#000000">当深度一定时间</text>
<text text-anchor="middle" x="325" y="-232.6" font-family="Times,serif" font-size="14.00" fill="#000000">内波动稳定在5cm</text>
<text text-anchor="middle" x="325" y="-215.8" font-family="Times,serif" font-size="14.00" fill="#000000">以内时判断为坐底</text>
</g>
<!-- x&#45;&gt;a -->
<g id="edge1" class="edge">
<title>x&#45;&gt;a</title>
<path fill="none" stroke="#000000" d="M346.611,-400.1435C342.8179,-371.4736 335.3273,-314.8574 330.241,-276.413"/>
<polygon fill="#000000" stroke="#000000" points="333.6566,-275.5444 328.8752,-266.0899 326.7171,-276.4626 333.6566,-275.5444"/>
</g>
<!-- f -->
<g id="node10" class="node">
<title>f</title>
<polygon fill="#d3d3d3" stroke="#000000" points="693.7357,-662.8 496.2643,-662.8 496.2643,-626.8 693.7357,-626.8 693.7357,-662.8"/>
<text text-anchor="middle" x="595" y="-640.6" font-family="Times,serif" font-size="14.00" fill="#000000">识别抓取范围内是否有可抓目标</text>
</g>
<!-- a&#45;&gt;f -->
<g id="edge11" class="edge">
<title>a&#45;&gt;f</title>
<path fill="none" stroke="#000000" d="M389.2849,-265.0464C447.0996,-290.4498 523,-323.8 523,-323.8 523,-513.6 523,-513.6 523,-513.6 523,-513.6 558.8681,-578.9597 579.9722,-617.416"/>
<polygon fill="#000000" stroke="#000000" points="577.1093,-619.4744 584.9887,-626.5572 583.246,-616.1067 577.1093,-619.4744"/>
</g>
<!-- b -->
<g id="node3" class="node">
<title>b</title>
<polygon fill="#d3d3d3" stroke="#000000" points="327.699,-66 70.301,-66 70.301,-16 327.699,-16 327.699,-66"/>
<text text-anchor="start" x="96.352" y="-50.4" font-family="Times,serif" font-size="14.00" fill="#000000">以视野内置信度最高的为目标,</text>
<text text-anchor="start" x="78.1506" y="-36.4" font-family="Times,serif" text-decoration="line-through" font-size="14.00" fill="#000000">前后或左右移动使目标中心在阈值框内</text>
<text text-anchor="start" x="155.4411" y="-22.4" font-family="Times,serif" font-weight="bold" font-size="14.00" fill="#000000">记录目标坐标</text>
</g>
<!-- y -->
<g id="node4" class="node">
<title>y</title>
<polygon fill="#d3d3d3" stroke="#000000" points="306.3716,-662.8 39.6284,-662.8 39.6284,-626.8 306.3716,-626.8 306.3716,-662.8"/>
<text text-anchor="start" x="47.5642" y="-647.2" font-family="Times,serif" font-weight="bold" font-size="14.00" fill="#000000">根据目标距图像中心距离设定水平速度,</text>
<text text-anchor="start" x="64.2676" y="-633.2" font-family="Times,serif" font-size="14.00" fill="#000000">全速下潜</text>
<text text-anchor="start" x="128.0348" y="-633.2" font-family="Times,serif" text-decoration="line-through" font-size="14.00" fill="#000000">的同时实时前后或左右微调</text>
</g>
<!-- b&#45;&gt;y -->
<g id="edge3" class="edge">
<title>b&#45;&gt;y</title>
<path fill="none" stroke="#000000" d="M172.5019,-66.0807C124.2546,-111.7474 27,-203.8 27,-203.8 27,-203.8 27,-266 27,-266 27,-266 34,-371 34,-371 34,-513.6 34,-513.6 34,-513.6 34,-513.6 105.9113,-581.476 146.2868,-619.5858"/>
<polygon fill="#000000" stroke="#000000" points="143.998,-622.2384 153.6726,-626.5572 148.8029,-617.1478 143.998,-622.2384"/>
<text text-anchor="start" x="33" y="-320.6" font-family="Times,serif" text-decoration="line-through" font-size="14.00" fill="#000000">目标在阈值框内</text>
</g>
<!-- c -->
<g id="node7" class="node">
<title>c</title>
<polygon fill="#d3d3d3" stroke="#000000" points="921.3185,-344.4019 752.6815,-344.4019 752.6815,-303.1981 921.3185,-303.1981 921.3185,-344.4019"/>
<text text-anchor="start" x="821.3368" y="-328" font-family="Times,serif" font-size="14.00" fill="#000000">巡航</text>
<text text-anchor="start" x="760.5908" y="-311.2" font-family="Times,serif" font-size="14.00" fill="#000000">采取蛇形走位遍历水域</text>
</g>
<!-- b&#45;&gt;c -->
<g id="edge17" class="edge">
<title>b&#45;&gt;c</title>
<path fill="none" stroke="#000000" d="M327.7452,-53.5819C457.5971,-66.272 639,-84 639,-84 639,-84 828,-110.8 828,-110.8 828,-110.8 850,-203.8 850,-203.8 850,-203.8 850,-266 850,-266 850,-266 847.0324,-279.1944 843.9329,-292.9751"/>
<polygon fill="#000000" stroke="#000000" points="840.473,-292.4086 841.6933,-302.9329 847.3024,-293.9446 840.473,-292.4086"/>
<text text-anchor="middle" x="872.6399" y="-177" font-family="Times,serif" font-size="14.00" fill="#000000">目标丢失</text>
</g>
<!-- y&#45;&gt;x -->
<g id="edge2" class="edge">
<title>y&#45;&gt;x</title>
<path fill="none" stroke="#000000" d="M187.1053,-626.6394C218.1289,-586.6965 292.3946,-491.0795 328.5408,-444.5412"/>
<polygon fill="#000000" stroke="#000000" points="331.4576,-446.4917 334.8275,-436.4471 325.9292,-442.1978 331.4576,-446.4917"/>
<text text-anchor="middle" x="329.6399" y="-509.4" font-family="Times,serif" font-size="14.00" fill="#000000">目标丢失</text>
</g>
<!-- g -->
<g id="node5" class="node">
<title>g</title>
<polygon fill="#d3d3d3" stroke="#000000" points="288.9506,-436.2 57.0494,-436.2 57.0494,-400.2 288.9506,-400.2 288.9506,-436.2"/>
<text text-anchor="start" x="65.2749" y="-415" font-family="Times,serif" font-weight="bold" font-size="14.00" fill="#000000">坐底后识别抓取范围内是否有可抓目标</text>
</g>
<!-- y&#45;&gt;g -->
<g id="edge4" class="edge">
<title>y&#45;&gt;g</title>
<path fill="none" stroke="#000000" d="M173,-626.6394C173,-587.2766 173,-493.845 173,-446.5995"/>
<polygon fill="#000000" stroke="#000000" points="176.5001,-446.447 173,-436.4471 169.5001,-446.4471 176.5001,-446.447"/>
</g>
<!-- k -->
<g id="node6" class="node">
<title>k</title>
<polygon fill="#d3d3d3" stroke="#000000" points="242.1565,-254.8 35.8435,-254.8 35.8435,-218.8 242.1565,-218.8 242.1565,-254.8"/>
<text text-anchor="start" x="96.2251" y="-239.2" font-family="Times,serif" font-weight="bold" font-size="14.00" fill="#000000">向着记录方向</text>
<text text-anchor="start" x="43.6719" y="-225.2" font-family="Times,serif" font-weight="bold" font-size="14.00" fill="#000000">半速水平移动的同时全速上浮1s</text>
</g>
<!-- g&#45;&gt;k -->
<g id="edge5" class="edge">
<title>g&#45;&gt;k</title>
<path fill="none" stroke="#000000" d="M169.6156,-400.1435C163.674,-368.4428 151.3283,-302.5748 144.2639,-264.8843"/>
<polygon fill="#000000" stroke="#000000" points="147.7035,-264.2367 142.4211,-255.0527 140.8233,-265.5264 147.7035,-264.2367"/>
<text text-anchor="start" x="159" y="-320.6" font-family="Times,serif" font-weight="bold" font-size="14.00" fill="#000000">否</text>
</g>
<!-- e -->
<g id="node11" class="node">
<title>e</title>
<polygon fill="#d3d3d3" stroke="#000000" points="700.5972,-261.8 475.4028,-261.8 475.4028,-211.8 700.5972,-211.8 700.5972,-261.8"/>
<text text-anchor="start" x="483.2016" y="-246.2" font-family="Times,serif" font-size="14.00" fill="#000000">给手臂程序传递目标相对位置,</text>
<text text-anchor="start" x="521.6988" y="-232.2" font-family="Times,serif" font-weight="bold" font-size="14.00" fill="#000000">持续发送手臂末端坐标</text>
<text text-anchor="start" x="540.8921" y="-218.2" font-family="Times,serif" font-size="14.00" fill="#000000">抓取并放入网框</text>
</g>
<!-- g&#45;&gt;e -->
<g id="edge19" class="edge">
<title>g&#45;&gt;e</title>
<path fill="none" stroke="#000000" d="M214.309,-400.1435C286.2132,-368.7136 434.9543,-303.6976 521.5262,-265.8563"/>
<polygon fill="#000000" stroke="#000000" points="522.9741,-269.0432 530.7351,-261.831 520.1704,-262.6292 522.9741,-269.0432"/>
<text text-anchor="start" x="435" y="-320.6" font-family="Times,serif" font-weight="bold" font-size="14.00" fill="#000000">是</text>
</g>
<!-- k&#45;&gt;b -->
<g id="edge6" class="edge">
<title>k&#45;&gt;b</title>
<path fill="none" stroke="#000000" d="M144.5371,-218.7306C154.4803,-186.2827 175.5169,-117.6331 188.3391,-75.7901"/>
<polygon fill="#000000" stroke="#000000" points="191.7488,-76.6086 191.3324,-66.022 185.056,-74.5577 191.7488,-76.6086"/>
</g>
<!-- c&#45;&gt;x -->
<g id="edge20" class="edge">
<title>c&#45;&gt;x</title>
<path fill="none" stroke="#000000" d="M752.3115,-340.1824C649.1861,-360.1312 478.6091,-393.1281 396.3083,-409.0486"/>
<polygon fill="#000000" stroke="#000000" points="395.6355,-405.6137 386.4822,-410.9493 396.965,-412.4863 395.6355,-405.6137"/>
<text text-anchor="start" x="622" y="-367.8" font-family="Times,serif" font-weight="bold" font-size="14.00" fill="#000000">一段时间后结束巡航</text>
</g>
<!-- l -->
<g id="node9" class="node">
<title>l</title>
<polygon fill="#d3d3d3" stroke="#000000" points="818.9058,-154.8 725.0942,-154.8 725.0942,-118.8 818.9058,-118.8 818.9058,-154.8"/>
<text text-anchor="middle" x="772" y="-132.6" font-family="Times,serif" font-size="14.00" fill="#000000">实时检测目标</text>
</g>
<!-- c&#45;&gt;l -->
<g id="edge9" class="edge">
<title>c&#45;&gt;l</title>
<path fill="none" stroke="#000000" d="M817.8658,-302.9329C802.6846,-286.3768 784,-266 784,-266 784,-266 778.1528,-203.0453 774.6216,-165.0262"/>
<polygon fill="#000000" stroke="#000000" points="778.1038,-164.6706 773.6939,-155.0372 771.1338,-165.318 778.1038,-164.6706"/>
</g>
<!-- d -->
<g id="node8" class="node">
<title>d</title>
<polygon fill="#d3d3d3" stroke="#000000" points="971.4636,-551.3003 724.5364,-551.3003 724.5364,-475.8997 971.4636,-475.8997 971.4636,-551.3003"/>
<text text-anchor="middle" x="848" y="-534.6" font-family="Times,serif" font-size="14.00" fill="#000000">定深</text>
<text text-anchor="middle" x="848" y="-517.8" font-family="Times,serif" font-size="14.00" fill="#000000">因为目标水域水底较为平坦,</text>
<text text-anchor="middle" x="848" y="-501" font-family="Times,serif" font-size="14.00" fill="#000000">采取上升一段时间后停止上升,</text>
<text text-anchor="middle" x="848" y="-484.2" font-family="Times,serif" font-size="14.00" fill="#000000">然后利用ROV自带深度闭环实现定深</text>
</g>
<!-- d&#45;&gt;c -->
<g id="edge7" class="edge">
<title>d&#45;&gt;c</title>
<path fill="none" stroke="#000000" d="M856.4365,-475.8607C865.3098,-436.1677 878,-379.4 878,-379.4 878,-379.4 878,-362.6 878,-362.6 878,-362.6 872.9782,-357.8477 866.4496,-351.6694"/>
<polygon fill="#000000" stroke="#000000" points="868.6094,-348.8945 858.9404,-344.5631 863.7979,-353.9788 868.6094,-348.8945"/>
</g>
<!-- l&#45;&gt;b -->
<g id="edge10" class="edge">
<title>l&#45;&gt;b</title>
<path fill="none" stroke="#000000" d="M724.6215,-128.8788C640.8206,-114.8681 463.473,-85.2173 338.0101,-64.2411"/>
<polygon fill="#000000" stroke="#000000" points="338.3744,-60.7535 327.9341,-62.5565 337.22,-67.6577 338.3744,-60.7535"/>
<text text-anchor="middle" x="594.2209" y="-88.2" font-family="Times,serif" font-size="14.00" fill="#000000">视野内有目标</text>
</g>
<!-- l&#45;&gt;c -->
<g id="edge8" class="edge">
<title>l&#45;&gt;c</title>
<path fill="none" stroke="#000000" d="M776.4771,-155.0372C785.22,-190.6512 803.7174,-266 803.7174,-266 803.7174,-266 811.7641,-279.9742 819.9443,-294.1804"/>
<polygon fill="#000000" stroke="#000000" points="816.961,-296.0134 824.9842,-302.9329 823.0272,-292.5203 816.961,-296.0134"/>
<text text-anchor="middle" x="826.1413" y="-241" font-family="Times,serif" font-size="14.00" fill="#000000">视野</text>
<text text-anchor="middle" x="826.1413" y="-224.2" font-family="Times,serif" font-size="14.00" fill="#000000">内无目标</text>
</g>
<!-- f&#45;&gt;d -->
<g id="edge16" class="edge">
<title>f&#45;&gt;d</title>
<path fill="none" stroke="#000000" d="M630.0844,-626.7226C664.8676,-608.8004 713,-584 713,-584 713,-584 738.1808,-570.8687 766.792,-555.9485"/>
<polygon fill="#000000" stroke="#000000" points="768.509,-559.0005 775.7574,-551.2732 765.2722,-552.7937 768.509,-559.0005"/>
<text text-anchor="middle" x="700.25" y="-596.2" font-family="Times,serif" font-size="14.00" fill="#000000">无</text>
</g>
<!-- i -->
<g id="node12" class="node">
<title>i</title>
<polygon fill="#d3d3d3" stroke="#000000" points="696.7174,-438.8019 607.2826,-438.8019 607.2826,-397.5981 696.7174,-397.5981 696.7174,-438.8019"/>
<text text-anchor="middle" x="652" y="-422.4" font-family="Times,serif" font-size="14.00" fill="#000000">判断是否</text>
<text text-anchor="middle" x="652" y="-405.6" font-family="Times,serif" font-size="14.00" fill="#000000">已经抓取两次</text>
</g>
<!-- f&#45;&gt;i -->
<g id="edge12" class="edge">
<title>f&#45;&gt;i</title>
<path fill="none" stroke="#000000" d="M599.5682,-626.6394C609.3145,-587.8936 632.2385,-496.7607 644.2889,-448.8548"/>
<polygon fill="#000000" stroke="#000000" points="647.7112,-449.5972 646.7564,-439.0455 640.9226,-447.8895 647.7112,-449.5972"/>
<text text-anchor="middle" x="642.25" y="-509.4" font-family="Times,serif" font-size="14.00" fill="#000000">有</text>
</g>
<!-- e&#45;&gt;f -->
<g id="edge13" class="edge">
<title>e&#45;&gt;f</title>
<path fill="none" stroke="#000000" d="M588,-261.964C588,-287.6584 588,-323.8 588,-323.8 588,-513.6 588,-513.6 588,-513.6 588,-513.6 591.4283,-577.8566 593.4865,-616.4325"/>
<polygon fill="#000000" stroke="#000000" points="589.9988,-616.7579 594.0267,-626.5572 596.9888,-616.3849 589.9988,-616.7579"/>
</g>
<!-- i&#45;&gt;c -->
<g id="edge18" class="edge">
<title>i&#45;&gt;c</title>
<path fill="none" stroke="#000000" d="M696.973,-402.865C706.1159,-399.7474 713,-397.4 713,-397.4 713,-397.4 859,-379.4 859,-379.4 859,-379.4 859,-362.6 859,-362.6 859,-362.6 856.8482,-358.805 853.8905,-353.5888"/>
<polygon fill="#000000" stroke="#000000" points="856.7499,-351.5357 848.7729,-344.5631 850.6607,-354.9884 856.7499,-351.5357"/>
<text text-anchor="middle" x="866.3913" y="-366.8" font-family="Times,serif" font-size="14.00" fill="#000000">是</text>
</g>
<!-- i&#45;&gt;e -->
<g id="edge14" class="edge">
<title>i&#45;&gt;e</title>
<path fill="none" stroke="#000000" d="M644.6584,-397.3911C633.808,-366.6369 613.3603,-308.6806 600.2247,-271.4495"/>
<polygon fill="#000000" stroke="#000000" points="603.5183,-270.2648 596.8905,-261.9991 596.9171,-272.5939 603.5183,-270.2648"/>
<text text-anchor="middle" x="632" y="-319.6" font-family="Times,serif" font-size="14.00" fill="#000000">否</text>
</g>
<!-- start -->
<g id="node13" class="node">
<title>start</title>
<polygon fill="#7cfc00" stroke="#000000" points="459,-531.6 405,-531.6 405,-495.6 459,-495.6 459,-531.6"/>
<text text-anchor="middle" x="432" y="-509.4" font-family="Times,serif" font-size="14.00" fill="#000000">start</text>
</g>
<!-- start&#45;&gt;x -->
<g id="edge15" class="edge">
<title>start&#45;&gt;x</title>
<path fill="none" stroke="#000000" d="M416.8633,-495.2406C408.9941,-485.696 401,-476 401,-476 401,-476 386.2702,-459.6273 372.4898,-444.3098"/>
<polygon fill="#000000" stroke="#000000" points="374.7434,-441.5816 365.4531,-436.4883 369.5394,-446.2634 374.7434,-441.5816"/>
</g>
</g>
</svg>
