<?xml version="1.0" encoding="UTF-8" standalone="no"?>
<!DOCTYPE svg PUBLIC "-//W3C//DTD SVG 1.1//EN"
 "http://www.w3.org/Graphics/SVG/1.1/DTD/svg11.dtd">
<!-- Generated by graphviz version 2.40.1 (20161225.0304)
 -->
<!-- Title: G Pages: 1 -->
<svg width="361pt" height="400pt"
 viewBox="0.00 0.00 360.98 400.20" xmlns="http://www.w3.org/2000/svg" xmlns:xlink="http://www.w3.org/1999/xlink">
<g id="graph0" class="graph" transform="scale(1 1) rotate(0) translate(4 396.2)">
<title>G</title>
<polygon fill="#ffffff" stroke="transparent" points="-4,4 -4,-396.2 356.9818,-396.2 356.9818,4 -4,4"/>
<!-- l -->
<g id="node1" class="node">
<title>l</title>
<polygon fill="#fbb4ae" stroke="#f2f2f2" points="248,-319.2 194,-319.2 194,-283.2 248,-283.2 248,-319.2"/>
<text text-anchor="middle" x="221" y="-297" font-family="Times,serif" font-size="14.00" fill="#000000">坐底</text>
</g>
<!-- l&#45;&gt;l -->
<g id="edge1" class="edge">
<title>l&#45;&gt;l</title>
<path fill="none" stroke="#000000" d="M248.2408,-307.9434C258.0239,-308.0884 266,-305.8406 266,-301.2 266,-298.3721 263.0382,-296.4328 258.5105,-295.382"/>
<polygon fill="#000000" stroke="#000000" points="258.5146,-291.8683 248.2408,-294.4566 257.8863,-298.84 258.5146,-291.8683"/>
<text text-anchor="middle" x="290.4909" y="-297" font-family="Times,serif" font-size="14.00" fill="#000000">未触底</text>
</g>
<!-- g -->
<g id="node2" class="node">
<title>g</title>
<polygon fill="#b3cde3" stroke="#f2f2f2" points="54,-230.4 0,-230.4 0,-194.4 54,-194.4 54,-230.4"/>
<text text-anchor="middle" x="27" y="-208.2" font-family="Times,serif" font-size="14.00" fill="#000000">抓取</text>
</g>
<!-- l&#45;&gt;g -->
<g id="edge2" class="edge">
<title>l&#45;&gt;g</title>
<path fill="none" stroke="#000000" d="M193.616,-288.6655C159.5308,-273.0636 101.2063,-246.3666 63.3899,-229.0568"/>
<polygon fill="#000000" stroke="#000000" points="64.7942,-225.8504 54.2447,-224.8708 61.8807,-232.2153 64.7942,-225.8504"/>
<text text-anchor="middle" x="159.8836" y="-252.6" font-family="Times,serif" font-size="14.00" fill="#000000">触底</text>
</g>
<!-- g&#45;&gt;g -->
<g id="edge3" class="edge">
<title>g&#45;&gt;g</title>
<path fill="none" stroke="#000000" d="M54.2408,-220.6419C64.0239,-220.8192 72,-218.0719 72,-212.4 72,-208.9437 69.0382,-206.5734 64.5105,-205.2891"/>
<polygon fill="#000000" stroke="#000000" points="64.5639,-201.7739 54.2408,-204.1581 63.7975,-208.7318 64.5639,-201.7739"/>
<text text-anchor="middle" x="88.9106" y="-208.2" font-family="Times,serif" font-size="14.00" fill="#000000">抓取中</text>
</g>
<!-- c -->
<g id="node3" class="node">
<title>c</title>
<polygon fill="#decbe4" stroke="#f2f2f2" points="175,-124.8 121,-124.8 121,-88.8 175,-88.8 175,-124.8"/>
<text text-anchor="middle" x="148" y="-102.6" font-family="Times,serif" font-size="14.00" fill="#000000">巡航</text>
</g>
<!-- g&#45;&gt;c -->
<g id="edge4" class="edge">
<title>g&#45;&gt;c</title>
<path fill="none" stroke="#000000" d="M21.9046,-194.2189C18.7894,-178.9456 17.2523,-157.3441 28.2746,-142.8 38.3451,-129.5119 79.448,-119.2074 110.7095,-113.0911"/>
<polygon fill="#000000" stroke="#000000" points="111.6942,-116.4674 120.8749,-111.1793 110.4002,-109.588 111.6942,-116.4674"/>
<text text-anchor="middle" x="118.3627" y="-163.8" font-family="Times,serif" font-size="14.00" fill="#000000">抓获目标/阈值框内不再有目标/</text>
<text text-anchor="middle" x="118.3627" y="-147" font-family="Times,serif" font-size="14.00" fill="#000000">到达时限&amp;机会用尽</text>
</g>
<!-- c&#45;&gt;l -->
<g id="edge5" class="edge">
<title>c&#45;&gt;l</title>
<path fill="none" stroke="#000000" d="M175.0498,-116.7134C186.8567,-122.4738 199.659,-130.9741 207,-142.8 231.7,-182.59 229.8123,-239.2017 225.7278,-272.8685"/>
<polygon fill="#000000" stroke="#000000" points="222.2374,-272.5617 224.3555,-282.9427 229.1733,-273.5067 222.2374,-272.5617"/>
<text text-anchor="middle" x="257.2499" y="-208.2" font-family="Times,serif" font-size="14.00" fill="#000000">到达时限</text>
</g>
<!-- a -->
<g id="node4" class="node">
<title>a</title>
<polygon fill="#fed9a6" stroke="#f2f2f2" points="175,-36 121,-36 121,0 175,0 175,-36"/>
<text text-anchor="middle" x="148" y="-13.8" font-family="Times,serif" font-size="14.00" fill="#000000">瞄准</text>
</g>
<!-- c&#45;&gt;a -->
<g id="edge6" class="edge">
<title>c&#45;&gt;a</title>
<path fill="none" stroke="#000000" d="M148,-88.4006C148,-76.2949 148,-60.2076 148,-46.4674"/>
<polygon fill="#000000" stroke="#000000" points="151.5001,-46.072 148,-36.072 144.5001,-46.0721 151.5001,-46.072"/>
<text text-anchor="middle" x="178.1413" y="-58.2" font-family="Times,serif" font-size="14.00" fill="#000000">检测到目标</text>
</g>
<!-- a&#45;&gt;l -->
<g id="edge7" class="edge">
<title>a&#45;&gt;l</title>
<path fill="none" stroke="#000000" d="M175.1554,-29.0916C187.484,-35.1101 201.5996,-43.4872 212,-54 262.0523,-104.5933 271.3362,-125.4586 289,-194.4 292.9712,-209.8993 294.9735,-215.5569 289,-230.4 281.8194,-248.2423 267.7553,-264.1123 254.2719,-276.2817"/>
<polygon fill="#000000" stroke="#000000" points="251.7542,-273.8307 246.4567,-283.0061 256.3198,-279.1369 251.7542,-273.8307"/>
<text text-anchor="middle" x="317.9909" y="-163.8" font-family="Times,serif" font-size="14.00" fill="#000000">未触底但</text>
<text text-anchor="middle" x="317.9909" y="-147" font-family="Times,serif" font-size="14.00" fill="#000000">目标丢失</text>
</g>
<!-- a&#45;&gt;g -->
<g id="edge8" class="edge">
<title>a&#45;&gt;g</title>
<path fill="none" stroke="#000000" d="M120.7814,-33.9379C88.761,-54.4539 37.2717,-93.4148 16,-142.8 10.3866,-155.8322 12.1183,-171.3432 15.6914,-184.4114"/>
<polygon fill="#000000" stroke="#000000" points="12.4659,-185.8161 18.8466,-194.2741 19.1331,-183.6831 12.4659,-185.8161"/>
<text text-anchor="middle" x="70.8836" y="-102.6" font-family="Times,serif" font-size="14.00" fill="#000000">触底</text>
</g>
<!-- start -->
<g id="node5" class="node">
<title>start</title>
<polygon fill="#ccebc5" stroke="#f2f2f2" points="221,-392.2 171.4979,-374.2 221,-356.2 270.5021,-374.2 221,-392.2"/>
<text text-anchor="middle" x="221" y="-370" font-family="Times,serif" font-size="14.00" fill="#000000">开始</text>
</g>
<!-- start&#45;&gt;l -->
<g id="edge9" class="edge">
<title>start&#45;&gt;l</title>
<path fill="none" stroke="#000000" d="M221,-356.1551C221,-348.0828 221,-338.3764 221,-329.3817"/>
<polygon fill="#000000" stroke="#000000" points="224.5001,-329.2903 221,-319.2904 217.5001,-329.2904 224.5001,-329.2903"/>
</g>
</g>
</svg>
