<?xml version="1.0" encoding="UTF-8" standalone="no"?>
<!DOCTYPE svg PUBLIC "-//W3C//DTD SVG 1.1//EN"
 "http://www.w3.org/Graphics/SVG/1.1/DTD/svg11.dtd">
<!-- Generated by graphviz version 2.40.1 (20161225.0304)
 -->
<!-- Title: G Pages: 1 -->
<svg width="1226pt" height="1056pt"
 viewBox="0.00 0.00 1226.00 1056.35" xmlns="http://www.w3.org/2000/svg" xmlns:xlink="http://www.w3.org/1999/xlink">
<g id="graph0" class="graph" transform="scale(1 1) rotate(0) translate(4 1052.3504)">
<title>G</title>
<polygon fill="#ffffff" stroke="transparent" points="-4,4 -4,-1052.3504 1222,-1052.3504 1222,4 -4,4"/>
<g id="clust1" class="cluster">
<title>cluster_dive</title>
<polygon fill="none" stroke="#0000ff" points="830,-8 830,-762.6015 1210,-762.6015 1210,-8 830,-8"/>
<text text-anchor="middle" x="1020" y="-746.0015" font-family="Times,serif" font-size="14.00" fill="#0000ff">移动至适当位置坐底</text>
</g>
<g id="clust2" class="cluster">
<title>cluster_curise</title>
<polygon fill="none" stroke="#0000ff" points="352,-302.3901 352,-928.7504 718,-928.7504 718,-302.3901 352,-302.3901"/>
<text text-anchor="middle" x="535" y="-912.1504" font-family="Times,serif" font-size="14.00" fill="#0000ff">定深巡航</text>
</g>
<g id="clust3" class="cluster">
<title>cluster_grasp</title>
<polygon fill="none" stroke="#0000ff" points="8,-375.3901 8,-1040.3504 344,-1040.3504 344,-375.3901 8,-375.3901"/>
<text text-anchor="middle" x="176" y="-1023.7504" font-family="Times,serif" font-size="14.00" fill="#0000ff">抓取</text>
</g>
<!-- x -->
<g id="node1" class="node">
<title>x</title>
<ellipse fill="#d3d3d3" stroke="#000000" cx="889" cy="-248.1901" rx="51.0319" ry="18"/>
<text text-anchor="middle" x="889" y="-243.9901" font-family="Times,serif" font-size="14.00" fill="#000000">持续下潜</text>
</g>
<!-- a -->
<g id="node2" class="node">
<title>a</title>
<ellipse fill="#d3d3d3" stroke="#000000" cx="986" cy="-57.295" rx="147.9122" ry="41.0911"/>
<text text-anchor="middle" x="986" y="-69.895" font-family="Times,serif" font-size="14.00" fill="#000000">坐底,</text>
<text text-anchor="middle" x="986" y="-53.095" font-family="Times,serif" font-size="14.00" fill="#000000">记录此时深度作为海底深度,</text>
<text text-anchor="middle" x="986" y="-36.295" font-family="Times,serif" font-size="14.00" fill="#000000">算出气压补偿</text>
</g>
<!-- x&#45;&gt;a -->
<g id="edge1" class="edge">
<title>x&#45;&gt;a</title>
<path fill="none" stroke="#000000" d="M884.0243,-229.9635C878.7201,-206.7667 872.9217,-166.0547 887.6122,-135.5901 893.8524,-122.6494 903.3865,-111.1878 914.1087,-101.3"/>
<polygon fill="#000000" stroke="#000000" points="916.443,-103.9083 921.6956,-94.7072 911.8516,-98.6245 916.443,-103.9083"/>
<text text-anchor="middle" x="943.1939" y="-173.3901" font-family="Times,serif" font-size="14.00" fill="#000000">当深度一定时间</text>
<text text-anchor="middle" x="943.1939" y="-156.5901" font-family="Times,serif" font-size="14.00" fill="#000000">内波动稳定在5cm</text>
<text text-anchor="middle" x="943.1939" y="-139.7901" font-family="Times,serif" font-size="14.00" fill="#000000">以内时判断为坐底</text>
</g>
<!-- f -->
<g id="node8" class="node">
<title>f</title>
<ellipse fill="#d3d3d3" stroke="#000000" cx="200" cy="-989.5504" rx="136.0991" ry="18"/>
<text text-anchor="middle" x="200" y="-985.3504" font-family="Times,serif" font-size="14.00" fill="#000000">识别抓取范围内是否有可抓目标</text>
</g>
<!-- a&#45;&gt;f -->
<g id="edge9" class="edge">
<title>a&#45;&gt;f</title>
<path fill="none" stroke="#000000" d="M872.1617,-83.6958C806.9667,-102.2395 738,-129.2984 738,-160.7901 738,-842.7759 738,-842.7759 738,-842.7759 738,-881.6429 750.402,-902.2181 722,-928.7504 694.2268,-954.6952 481.4634,-972.6238 336.2897,-981.9799"/>
<polygon fill="#000000" stroke="#000000" points="335.7144,-978.5094 325.9575,-982.6387 336.1599,-985.4952 335.7144,-978.5094"/>
</g>
<!-- b -->
<g id="node3" class="node">
<title>b</title>
<ellipse fill="#d3d3d3" stroke="#000000" cx="1020" cy="-700.3859" rx="182.4414" ry="29.3315"/>
<text text-anchor="middle" x="1020" y="-704.5859" font-family="Times,serif" font-size="14.00" fill="#000000">以视野内置信度最高的为目标,</text>
<text text-anchor="middle" x="1020" y="-687.7859" font-family="Times,serif" font-size="14.00" fill="#000000">前后或左右移动使目标中心在阈值框内</text>
</g>
<!-- y -->
<g id="node4" class="node">
<title>y</title>
<ellipse fill="#d3d3d3" stroke="#000000" cx="1028" cy="-412.8057" rx="161.0795" ry="18"/>
<text text-anchor="middle" x="1028" y="-408.6057" font-family="Times,serif" font-size="14.00" fill="#000000">全速下潜的同时实时前后或左右微调</text>
</g>
<!-- b&#45;&gt;y -->
<g id="edge3" class="edge">
<title>b&#45;&gt;y</title>
<path fill="none" stroke="#000000" d="M1020.8185,-670.9612C1022.3642,-615.3998 1025.6933,-495.7268 1027.2137,-441.0709"/>
<polygon fill="#000000" stroke="#000000" points="1030.7131,-441.1384 1027.4926,-431.0449 1023.7158,-440.9437 1030.7131,-441.1384"/>
<text text-anchor="middle" x="1087.7928" y="-543.9958" font-family="Times,serif" font-size="14.00" fill="#000000">目标中心在阈值框内</text>
</g>
<!-- c -->
<g id="node5" class="node">
<title>c</title>
<ellipse fill="#d3d3d3" stroke="#000000" cx="574" cy="-548.1958" rx="122.2416" ry="53.3494"/>
<text text-anchor="middle" x="574" y="-569.1958" font-family="Times,serif" font-size="14.00" fill="#000000">巡航</text>
<text text-anchor="middle" x="574" y="-552.3958" font-family="Times,serif" font-size="14.00" fill="#000000">因为摄像头向前的视野不够多,</text>
<text text-anchor="middle" x="574" y="-535.5958" font-family="Times,serif" font-size="14.00" fill="#000000">路径规划无法依靠视觉,</text>
<text text-anchor="middle" x="574" y="-518.7958" font-family="Times,serif" font-size="14.00" fill="#000000">采取蛇形走位遍历水域</text>
</g>
<!-- b&#45;&gt;c -->
<g id="edge15" class="edge">
<title>b&#45;&gt;c</title>
<path fill="none" stroke="#000000" d="M880.8191,-681.3636C844.7216,-674.3895 806.2894,-665.1208 771.7202,-652.9702 730.8381,-638.6008 688.0438,-616.8612 652.7657,-596.9024"/>
<polygon fill="#000000" stroke="#000000" points="654.3831,-593.7956 643.9643,-591.8721 650.9096,-599.873 654.3831,-593.7956"/>
<text text-anchor="middle" x="797.6399" y="-631.9702" font-family="Times,serif" font-size="14.00" fill="#000000">目标丢失</text>
</g>
<!-- y&#45;&gt;x -->
<g id="edge2" class="edge">
<title>y&#45;&gt;x</title>
<path fill="none" stroke="#000000" d="M1023.3018,-394.4151C1020.3723,-384.9612 1016.0029,-373.5366 1010,-364.3901 985.3802,-326.8768 946.5704,-292.4307 919.5664,-270.9463"/>
<polygon fill="#000000" stroke="#000000" points="921.6256,-268.1134 911.5937,-264.7058 917.311,-273.6256 921.6256,-268.1134"/>
<text text-anchor="middle" x="1022.6399" y="-324.1901" font-family="Times,serif" font-size="14.00" fill="#000000">目标丢失</text>
</g>
<!-- y&#45;&gt;a -->
<g id="edge4" class="edge">
<title>y&#45;&gt;a</title>
<path fill="none" stroke="#000000" d="M1019.9926,-394.6562C1016.4442,-385.9537 1012.5128,-375.2901 1010,-365.3901 1005.9176,-349.3062 1005,-344.984 1005,-328.3901 1005,-328.3901 1005,-328.3901 1005,-160.7901 1005,-143.6951 1002.4612,-125.2689 999.2397,-108.7691"/>
<polygon fill="#000000" stroke="#000000" points="1002.624,-107.8521 997.1623,-98.7736 995.7705,-109.2766 1002.624,-107.8521"/>
<text text-anchor="middle" x="1061.1939" y="-260.7901" font-family="Times,serif" font-size="14.00" fill="#000000">当深度一定时间</text>
<text text-anchor="middle" x="1061.1939" y="-243.9901" font-family="Times,serif" font-size="14.00" fill="#000000">内波动稳定在5cm</text>
<text text-anchor="middle" x="1061.1939" y="-227.1901" font-family="Times,serif" font-size="14.00" fill="#000000">以内时判断为坐底</text>
</g>
<!-- l -->
<g id="node7" class="node">
<title>l</title>
<ellipse fill="#d3d3d3" stroke="#000000" cx="611" cy="-328.3901" rx="64.5498" ry="18"/>
<text text-anchor="middle" x="611" y="-324.1901" font-family="Times,serif" font-size="14.00" fill="#000000">实时检测目标</text>
</g>
<!-- c&#45;&gt;l -->
<g id="edge7" class="edge">
<title>c&#45;&gt;l</title>
<path fill="none" stroke="#000000" d="M573.2238,-494.7496C573.9608,-460.1468 577.281,-414.4288 588,-375.3901 589.7995,-368.8364 592.5114,-362.0993 595.4489,-355.8456"/>
<polygon fill="#000000" stroke="#000000" points="598.7776,-357.0176 600.1518,-346.5122 592.5263,-353.8676 598.7776,-357.0176"/>
</g>
<!-- d -->
<g id="node6" class="node">
<title>d</title>
<ellipse fill="#d3d3d3" stroke="#000000" cx="535" cy="-842.7759" rx="174.7594" ry="53.3494"/>
<text text-anchor="middle" x="535" y="-863.7759" font-family="Times,serif" font-size="14.00" fill="#000000">定深</text>
<text text-anchor="middle" x="535" y="-846.9759" font-family="Times,serif" font-size="14.00" fill="#000000">因为目标水域水底较为平坦,</text>
<text text-anchor="middle" x="535" y="-830.1759" font-family="Times,serif" font-size="14.00" fill="#000000">采取上升一段时间后停止上升,</text>
<text text-anchor="middle" x="535" y="-813.3759" font-family="Times,serif" font-size="14.00" fill="#000000">然后利用ROV自带深度闭环实现定深</text>
</g>
<!-- d&#45;&gt;c -->
<g id="edge5" class="edge">
<title>d&#45;&gt;c</title>
<path fill="none" stroke="#000000" d="M542.0626,-789.4297C548.6821,-739.4301 558.5834,-664.6422 565.6042,-611.6118"/>
<polygon fill="#000000" stroke="#000000" points="569.0813,-612.015 566.9241,-601.6421 562.1419,-611.0962 569.0813,-612.015"/>
</g>
<!-- l&#45;&gt;b -->
<g id="edge8" class="edge">
<title>l&#45;&gt;b</title>
<path fill="none" stroke="#000000" d="M630.221,-345.872C693.2394,-403.1889 894.4696,-586.2128 980.444,-664.4087"/>
<polygon fill="#000000" stroke="#000000" points="978.1536,-667.0567 987.9065,-671.196 982.8636,-661.8782 978.1536,-667.0567"/>
<text text-anchor="middle" x="814.2209" y="-464.4214" font-family="Times,serif" font-size="14.00" fill="#000000">视野内有目标</text>
</g>
<!-- l&#45;&gt;c -->
<g id="edge6" class="edge">
<title>l&#45;&gt;c</title>
<path fill="none" stroke="#000000" d="M607.9471,-346.5266C602.9041,-376.4851 592.6025,-437.684 584.6632,-484.8492"/>
<polygon fill="#000000" stroke="#000000" points="581.1653,-484.5447 582.9567,-494.987 588.0681,-485.7067 581.1653,-484.5447"/>
<text text-anchor="middle" x="627.1413" y="-417.0057" font-family="Times,serif" font-size="14.00" fill="#000000">视野</text>
<text text-anchor="middle" x="627.1413" y="-400.2057" font-family="Times,serif" font-size="14.00" fill="#000000">内无目标</text>
</g>
<!-- f&#45;&gt;d -->
<g id="edge14" class="edge">
<title>f&#45;&gt;d</title>
<path fill="none" stroke="#000000" d="M242.9408,-972.4532C272.5879,-960.5164 312.8488,-944.0434 348,-928.7504 374.8184,-917.0826 403.6037,-904.0872 430.3566,-891.8057"/>
<polygon fill="#000000" stroke="#000000" points="432.106,-894.8536 439.7282,-887.4947 429.1806,-888.4942 432.106,-894.8536"/>
<text text-anchor="middle" x="359.5326" y="-940.9504" font-family="Times,serif" font-size="14.00" fill="#000000">无可抓目标</text>
</g>
<!-- i -->
<g id="node10" class="node">
<title>i</title>
<ellipse fill="#d3d3d3" stroke="#000000" cx="260" cy="-700.3859" rx="64.8707" ry="29.3315"/>
<text text-anchor="middle" x="260" y="-704.5859" font-family="Times,serif" font-size="14.00" fill="#000000">判断是否达到</text>
<text text-anchor="middle" x="260" y="-687.7859" font-family="Times,serif" font-size="14.00" fill="#000000">抓取次数上限</text>
</g>
<!-- f&#45;&gt;i -->
<g id="edge10" class="edge">
<title>f&#45;&gt;i</title>
<path fill="none" stroke="#000000" d="M203.7533,-971.4618C213.2798,-925.5497 238.5732,-803.6505 251.7528,-740.1327"/>
<polygon fill="#000000" stroke="#000000" points="255.2317,-740.5931 253.8364,-730.0905 248.3777,-739.1709 255.2317,-740.5931"/>
<text text-anchor="middle" x="246.25" y="-838.5759" font-family="Times,serif" font-size="14.00" fill="#000000">有</text>
</g>
<!-- e -->
<g id="node9" class="node">
<title>e</title>
<ellipse fill="#d3d3d3" stroke="#000000" cx="176" cy="-412.8057" rx="159.5421" ry="29.3315"/>
<text text-anchor="middle" x="176" y="-417.0057" font-family="Times,serif" font-size="14.00" fill="#000000">给手臂程序传递目标相对位置,</text>
<text text-anchor="middle" x="176" y="-400.2057" font-family="Times,serif" font-size="14.00" fill="#000000">抓取并放入网框</text>
</g>
<!-- e&#45;&gt;f -->
<g id="edge11" class="edge">
<title>e&#45;&gt;f</title>
<path fill="none" stroke="#000000" d="M176,-442.3863C176,-469.8148 176,-511.7627 176,-548.1958 176,-842.7759 176,-842.7759 176,-842.7759 176,-884.3987 185.5165,-931.801 192.5645,-961.1998"/>
<polygon fill="#000000" stroke="#000000" points="189.2317,-962.3031 195.0272,-971.1723 196.0275,-960.6248 189.2317,-962.3031"/>
</g>
<!-- i&#45;&gt;c -->
<g id="edge16" class="edge">
<title>i&#45;&gt;c</title>
<path fill="none" stroke="#000000" d="M304.6551,-678.7424C350.8615,-656.3469 424.3315,-620.7374 482.8744,-592.3627"/>
<polygon fill="#000000" stroke="#000000" points="484.6634,-595.3851 492.1356,-587.874 481.6103,-589.086 484.6634,-595.3851"/>
<text text-anchor="middle" x="453.0442" y="-640.3702" font-family="Times,serif" font-size="14.00" fill="#000000">达到抓取</text>
<text text-anchor="middle" x="453.0442" y="-623.5702" font-family="Times,serif" font-size="14.00" fill="#000000">次数上限</text>
</g>
<!-- i&#45;&gt;e -->
<g id="edge12" class="edge">
<title>i&#45;&gt;e</title>
<path fill="none" stroke="#000000" d="M251.4053,-670.9612C236.1873,-618.8612 204.5033,-510.3889 187.4518,-452.0117"/>
<polygon fill="#000000" stroke="#000000" points="190.8088,-451.0213 184.6454,-442.4037 184.0896,-452.984 190.8088,-451.0213"/>
<text text-anchor="middle" x="253.1606" y="-560.7958" font-family="Times,serif" font-size="14.00" fill="#000000">未达到</text>
<text text-anchor="middle" x="253.1606" y="-543.9958" font-family="Times,serif" font-size="14.00" fill="#000000">抓取次数</text>
<text text-anchor="middle" x="253.1606" y="-527.1958" font-family="Times,serif" font-size="14.00" fill="#000000">上限</text>
</g>
<!-- start -->
<g id="node11" class="node">
<title>start</title>
<ellipse fill="#ff0000" stroke="#ff0000" cx="794" cy="-328.3901" rx="27.8228" ry="18"/>
<text text-anchor="middle" x="794" y="-324.1901" font-family="Times,serif" font-size="14.00" fill="#ffffff">start</text>
</g>
<!-- start&#45;&gt;x -->
<g id="edge13" class="edge">
<title>start&#45;&gt;x</title>
<path fill="none" stroke="#000000" d="M810.9841,-314.0519C825.0187,-302.2038 845.2169,-285.1522 861.5451,-271.3678"/>
<polygon fill="#000000" stroke="#000000" points="863.8225,-274.0256 869.2059,-264.9004 859.307,-268.6768 863.8225,-274.0256"/>
</g>
</g>
</svg>
