<?xml version="1.0" encoding="UTF-8" standalone="no"?>
<!DOCTYPE svg PUBLIC "-//W3C//DTD SVG 1.1//EN"
 "http://www.w3.org/Graphics/SVG/1.1/DTD/svg11.dtd">
<!-- Generated by graphviz version 2.40.1 (20161225.0304)
 -->
<!-- Title: G Pages: 1 -->
<svg width="318pt" height="400pt"
 viewBox="0.00 0.00 317.98 400.20" xmlns="http://www.w3.org/2000/svg" xmlns:xlink="http://www.w3.org/1999/xlink">
<g id="graph0" class="graph" transform="scale(1 1) rotate(0) translate(4 396.2)">
<title>G</title>
<polygon fill="#ffffff" stroke="transparent" points="-4,4 -4,-396.2 313.9818,-396.2 313.9818,4 -4,4"/>
<!-- l -->
<g id="node1" class="node">
<title>l</title>
<polygon fill="#fbb4ae" stroke="#f2f2f2" points="206,-319.2 152,-319.2 152,-283.2 206,-283.2 206,-319.2"/>
<text text-anchor="middle" x="179" y="-297" font-family="Times,serif" font-size="14.00" fill="#000000">坐底</text>
</g>
<!-- l&#45;&gt;l -->
<g id="edge1" class="edge">
<title>l&#45;&gt;l</title>
<path fill="none" stroke="#000000" d="M206.2408,-307.9434C216.0239,-308.0884 224,-305.8406 224,-301.2 224,-298.3721 221.0382,-296.4328 216.5105,-295.382"/>
<polygon fill="#000000" stroke="#000000" points="216.5146,-291.8683 206.2408,-294.4566 215.8863,-298.84 216.5146,-291.8683"/>
<text text-anchor="middle" x="248.4909" y="-297" font-family="Times,serif" font-size="14.00" fill="#000000">未触底</text>
</g>
<!-- g -->
<g id="node2" class="node">
<title>g</title>
<polygon fill="#b3cde3" stroke="#f2f2f2" points="54,-230.4 0,-230.4 0,-194.4 54,-194.4 54,-230.4"/>
<text text-anchor="middle" x="27" y="-208.2" font-family="Times,serif" font-size="14.00" fill="#000000">抓取</text>
</g>
<!-- l&#45;&gt;g -->
<g id="edge2" class="edge">
<title>l&#45;&gt;g</title>
<path fill="none" stroke="#000000" d="M151.8254,-285.3243C127.0452,-270.8474 90.2552,-249.3544 63.0301,-233.4492"/>
<polygon fill="#000000" stroke="#000000" points="64.5952,-230.31 54.1951,-228.2877 61.0641,-236.3542 64.5952,-230.31"/>
<text text-anchor="middle" x="134.8836" y="-252.6" font-family="Times,serif" font-size="14.00" fill="#000000">触底</text>
</g>
<!-- g&#45;&gt;g -->
<g id="edge3" class="edge">
<title>g&#45;&gt;g</title>
<path fill="none" stroke="#000000" d="M54.2408,-220.6419C64.0239,-220.8192 72,-218.0719 72,-212.4 72,-208.9437 69.0382,-206.5734 64.5105,-205.2891"/>
<polygon fill="#000000" stroke="#000000" points="64.5639,-201.7739 54.2408,-204.1581 63.7975,-208.7318 64.5639,-201.7739"/>
<text text-anchor="middle" x="88.9106" y="-208.2" font-family="Times,serif" font-size="14.00" fill="#000000">抓取中</text>
</g>
<!-- c -->
<g id="node3" class="node">
<title>c</title>
<polygon fill="#decbe4" stroke="#f2f2f2" points="154,-124.8 100,-124.8 100,-88.8 154,-88.8 154,-124.8"/>
<text text-anchor="middle" x="127" y="-102.6" font-family="Times,serif" font-size="14.00" fill="#000000">巡航</text>
</g>
<!-- g&#45;&gt;c -->
<g id="edge4" class="edge">
<title>g&#45;&gt;c</title>
<path fill="none" stroke="#000000" d="M22.1571,-194.3727C19.2066,-179.1955 17.7856,-157.6487 28.395,-142.8 35.8909,-132.3088 65.2271,-122.4165 89.9689,-115.6663"/>
<polygon fill="#000000" stroke="#000000" points="91.0849,-118.9919 99.8648,-113.0619 89.3032,-112.2224 91.0849,-118.9919"/>
<text text-anchor="middle" x="97.3025" y="-163.8" font-family="Times,serif" font-size="14.00" fill="#000000">抓获目标/丢失目标/</text>
<text text-anchor="middle" x="97.3025" y="-147" font-family="Times,serif" font-size="14.00" fill="#000000">到达时限&amp;机会用尽</text>
</g>
<!-- c&#45;&gt;l -->
<g id="edge5" class="edge">
<title>c&#45;&gt;l</title>
<path fill="none" stroke="#000000" d="M151.6999,-125.1691C156.9384,-130.2844 161.8359,-136.2545 165,-142.8 185.1867,-184.559 184.907,-239.7303 182.3298,-272.7237"/>
<polygon fill="#000000" stroke="#000000" points="178.8144,-272.7351 181.3939,-283.0111 185.7856,-273.3693 178.8144,-272.7351"/>
<text text-anchor="middle" x="212.2499" y="-208.2" font-family="Times,serif" font-size="14.00" fill="#000000">到达时限</text>
</g>
<!-- a -->
<g id="node4" class="node">
<title>a</title>
<polygon fill="#fed9a6" stroke="#f2f2f2" points="154,-36 100,-36 100,0 154,0 154,-36"/>
<text text-anchor="middle" x="127" y="-13.8" font-family="Times,serif" font-size="14.00" fill="#000000">瞄准</text>
</g>
<!-- c&#45;&gt;a -->
<g id="edge6" class="edge">
<title>c&#45;&gt;a</title>
<path fill="none" stroke="#000000" d="M127,-88.4006C127,-76.2949 127,-60.2076 127,-46.4674"/>
<polygon fill="#000000" stroke="#000000" points="130.5001,-46.072 127,-36.072 123.5001,-46.0721 130.5001,-46.072"/>
<text text-anchor="middle" x="157.1413" y="-58.2" font-family="Times,serif" font-size="14.00" fill="#000000">检测到目标</text>
</g>
<!-- a&#45;&gt;l -->
<g id="edge7" class="edge">
<title>a&#45;&gt;l</title>
<path fill="none" stroke="#000000" d="M154.1974,-28.1572C166.8347,-34.0487 181.1981,-42.5888 191,-54 234.4599,-104.5951 232.0278,-128.7853 244,-194.4 246.872,-210.1401 249.8061,-215.4906 244,-230.4 237.1161,-248.0771 223.5272,-264.0166 210.5463,-276.2757"/>
<polygon fill="#000000" stroke="#000000" points="208.112,-273.7579 203.0288,-283.0537 212.7995,-278.9568 208.112,-273.7579"/>
<text text-anchor="middle" x="274.9909" y="-163.8" font-family="Times,serif" font-size="14.00" fill="#000000">未触底但</text>
<text text-anchor="middle" x="274.9909" y="-147" font-family="Times,serif" font-size="14.00" fill="#000000">目标丢失</text>
</g>
<!-- a&#45;&gt;g -->
<g id="edge8" class="edge">
<title>a&#45;&gt;g</title>
<path fill="none" stroke="#000000" d="M101.6614,-36.0982C73.9788,-57.7331 31.6237,-96.838 17,-142.8 12.7361,-156.2013 14.3349,-171.6359 17.3834,-184.5598"/>
<polygon fill="#000000" stroke="#000000" points="14.0342,-185.5814 20.0546,-194.2995 20.7849,-183.7299 14.0342,-185.5814"/>
<text text-anchor="middle" x="63.8836" y="-102.6" font-family="Times,serif" font-size="14.00" fill="#000000">触底</text>
</g>
<!-- start -->
<g id="node5" class="node">
<title>start</title>
<polygon fill="#ccebc5" stroke="#f2f2f2" points="179,-392.2 129.4979,-374.2 179,-356.2 228.5021,-374.2 179,-392.2"/>
<text text-anchor="middle" x="179" y="-370" font-family="Times,serif" font-size="14.00" fill="#000000">开始</text>
</g>
<!-- start&#45;&gt;l -->
<g id="edge9" class="edge">
<title>start&#45;&gt;l</title>
<path fill="none" stroke="#000000" d="M179,-356.1551C179,-348.0828 179,-338.3764 179,-329.3817"/>
<polygon fill="#000000" stroke="#000000" points="182.5001,-329.2903 179,-319.2904 175.5001,-329.2904 182.5001,-329.2903"/>
</g>
</g>
</svg>
